<svg width="1070" height="300" role="img" viewBox="0 0 107 30" fill="none" xmlns="http://www.w3.org/2000/svg">
  <path d="M1.50781 3.89844C1.67188 3.82812 1.83594 3.83984 2 3.93359C2.16406 4.00391 2.33984 4.03906 2.52734 4.03906C2.78516 4.03906 3.01953 4.00391 3.23047 3.93359C3.46484 3.83984 3.69922 3.76953 3.93359 3.72266C4.21484 3.76953 4.37891 3.78125 4.42578 3.75781C4.47266 3.71094 4.53125 3.6875 4.60156 3.6875C4.71875 3.6875 4.8125 3.71094 4.88281 3.75781C4.95312 3.80469 5.05859 3.81641 5.19922 3.79297C5.38672 3.60547 5.62109 3.46484 5.90234 3.37109C6.20703 3.25391 6.51172 3.13672 6.81641 3.01953C6.88672 3.01953 6.95703 3.01953 7.02734 3.01953C7.09766 3.01953 7.15625 3.04297 7.20312 3.08984C7.17969 3.30078 7.20312 3.40625 7.27344 3.40625C7.36719 3.40625 7.4375 3.42969 7.48438 3.47656C7.74219 3.66406 7.97656 3.73438 8.1875 3.6875C8.42188 3.64062 8.59766 3.66406 8.71484 3.75781C9.01953 3.66406 9.38281 3.61719 9.80469 3.61719C10.1094 3.66406 10.3086 3.67578 10.4023 3.65234C10.5195 3.62891 10.6367 3.59375 10.7539 3.54688C10.8242 3.52344 10.8711 3.48828 10.8945 3.44141C10.918 3.37109 10.9883 3.34766 11.1055 3.37109C11.1758 3.41797 11.1992 3.5 11.1758 3.61719C11.1523 3.71094 11.1758 3.78125 11.2461 3.82812C11.4336 3.82812 11.5859 3.79297 11.7031 3.72266C11.8203 3.65234 11.9727 3.60547 12.1602 3.58203C12.3242 3.65234 12.5117 3.66406 12.7227 3.61719C12.793 3.61719 12.8516 3.59375 12.8984 3.54688C12.9688 3.47656 13.0273 3.44141 13.0742 3.44141C13.3789 3.53516 13.5547 3.55859 13.6016 3.51172C13.6484 3.46484 13.6953 3.41797 13.7422 3.37109C14.0703 3.20703 14.293 3.10156 14.4102 3.05469C14.5508 2.98438 14.7031 2.92578 14.8672 2.87891C14.9844 2.78516 15.0781 2.70312 15.1484 2.63281C15.2188 2.5625 15.3242 2.51562 15.4648 2.49219C15.7461 2.60938 15.9102 2.62109 15.957 2.52734C16.0039 2.41016 16.0742 2.31641 16.168 2.24609C16.4727 2.24609 16.6367 2.23437 16.6602 2.21094C16.707 2.16406 16.7656 2.12891 16.8359 2.10547C17.1172 1.84766 17.3047 1.67187 17.3984 1.57812C17.4922 1.46094 17.5977 1.34375 17.7148 1.22656C17.9492 1.4375 18.0898 1.50781 18.1367 1.4375C18.1836 1.34375 18.2188 1.26172 18.2422 1.19141C18.2891 1.12109 18.3477 1.0625 18.418 1.01562C18.4883 0.945312 18.5938 0.921875 18.7344 0.945312C18.9453 0.757812 19.0625 0.675781 19.0859 0.699219C19.1094 0.699219 19.1445 0.6875 19.1914 0.664062C19.3086 0.664062 19.3672 0.628906 19.3672 0.558594C19.3906 0.488281 19.4258 0.429688 19.4727 0.382812C19.5664 0.359375 19.6367 0.324219 19.6836 0.277344C19.7305 0.230469 19.8008 0.195312 19.8945 0.171875C19.9648 0.40625 19.9531 0.570313 19.8594 0.664062C19.7656 0.734375 19.707 0.863281 19.6836 1.05078C19.6133 1.12109 19.5781 1.25 19.5781 1.4375C19.4844 1.55469 19.4258 1.68359 19.4023 1.82422C19.4023 1.96484 19.3789 2.10547 19.332 2.24609L18.7695 2.80859C18.7227 2.94922 18.6641 3.07812 18.5938 3.19531C18.5234 3.3125 18.4766 3.46484 18.4531 3.65234L17.9258 4.74219C17.8086 4.85938 17.6797 4.95312 17.5391 5.02344C17.3984 5.09375 17.293 5.21094 17.2227 5.375C17.2461 5.58594 17.2695 5.77344 17.293 5.9375C17.3164 6.10156 17.293 6.27734 17.2227 6.46484C17.3164 6.93359 17.2461 7.21484 17.0117 7.30859C16.8945 7.26172 16.7891 7.26172 16.6953 7.30859C16.625 7.33203 16.5312 7.35547 16.4141 7.37891C16.2969 7.28516 16.168 7.26172 16.0273 7.30859C15.9102 7.33203 15.793 7.32031 15.6758 7.27344C15.5352 7.32031 15.3828 7.34375 15.2188 7.34375C15.0547 7.34375 14.9141 7.28516 14.7969 7.16797C14.6094 7.19141 14.457 7.23828 14.3398 7.30859C14.2227 7.37891 14.0703 7.40234 13.8828 7.37891C13.6016 7.19141 13.3555 7.13281 13.1445 7.20312C13.1445 7.17969 13.0977 7.15625 13.0039 7.13281C12.9336 7.08594 12.8398 7.0625 12.7227 7.0625C12.6289 7.03906 12.5352 7.01562 12.4414 6.99219C12.3477 6.96875 12.3008 6.94531 12.3008 6.92188C12.1836 6.875 12.043 6.86328 11.8789 6.88672C11.7383 6.88672 11.6094 6.91016 11.4922 6.95703C11.3984 6.95703 11.293 6.95703 11.1758 6.95703C11.082 6.93359 11.0117 6.94531 10.9648 6.99219C10.8008 6.92188 10.6133 6.91016 10.4023 6.95703C10.2148 6.98047 10.0391 7.01562 9.875 7.0625C9.78125 7.15625 9.69922 7.19141 9.62891 7.16797C9.55859 7.14453 9.48828 7.14453 9.41797 7.16797C9.27734 7.07422 9.16016 7.00391 9.06641 6.95703C8.99609 6.91016 8.90234 6.91016 8.78516 6.95703C8.59766 7.07422 8.45703 7.20312 8.36328 7.34375L8.46875 7.94141C8.53906 7.96484 8.64453 7.95312 8.78516 7.90625C8.92578 7.85938 9.01953 7.89453 9.06641 8.01172C9.01953 8.17578 8.9375 8.31641 8.82031 8.43359C8.70312 8.52734 8.63281 8.67969 8.60938 8.89062C8.72656 9.21875 8.77344 9.44141 8.75 9.55859C8.72656 9.67578 8.71484 9.80469 8.71484 9.94531L8.85547 10.3672C8.73828 10.6016 8.67969 10.8477 8.67969 11.1055C8.70312 11.3398 8.70312 11.6094 8.67969 11.9141C8.75 12.1719 8.75 12.3008 8.67969 12.3008C8.63281 12.3008 8.58594 12.3125 8.53906 12.3359C8.53906 12.5234 8.59766 12.6523 8.71484 12.7227C8.83203 12.793 8.90234 12.9102 8.92578 13.0742C8.90234 13.1914 8.86719 13.2852 8.82031 13.3555C8.77344 13.4023 8.72656 13.4727 8.67969 13.5664C8.89062 13.7305 9.04297 13.8125 9.13672 13.8125C9.25391 13.8125 9.35938 13.8359 9.45312 13.8828C9.54688 13.9062 9.64062 13.8828 9.73438 13.8125C10.0391 13.8125 10.25 13.7891 10.3672 13.7422C10.5781 13.8125 10.7656 13.9414 10.9297 14.1289C11.2344 14.0586 11.4102 14.0352 11.457 14.0586C11.5273 14.0586 11.5977 14.0703 11.668 14.0938C11.8555 14.0469 11.9961 13.9648 12.0898 13.8477C12.207 13.7305 12.3359 13.625 12.4766 13.5312C12.7344 13.5312 12.957 13.4609 13.1445 13.3203C13.4258 13.25 13.625 13.1328 13.7422 12.9688C13.8828 12.7812 14.0352 12.6055 14.1992 12.4414C14.2461 12.2773 14.293 12.1953 14.3398 12.1953C14.3867 12.1719 14.4102 12.1367 14.4102 12.0898C14.4102 11.832 14.457 11.6445 14.5508 11.5273C14.668 11.3867 14.8086 11.2578 14.9727 11.1406C15.0195 11.0703 15.0547 10.9883 15.0781 10.8945C15.1016 10.8008 15.1367 10.7305 15.1836 10.6836C15.3945 10.8945 15.4766 11.0234 15.4297 11.0703C15.4766 11.1641 15.5234 11.2344 15.5703 11.2812C15.6406 11.3281 15.6641 11.4102 15.6406 11.5273C15.6172 11.6445 15.5586 11.7383 15.4648 11.8086C15.3711 11.8789 15.3008 11.9375 15.2539 11.9844L14.9375 12.5117C14.9375 12.6055 14.9258 12.6875 14.9023 12.7578C14.8789 12.8047 14.8672 12.875 14.8672 12.9688C14.7734 13.1797 14.6914 13.4023 14.6211 13.6367C14.5742 13.8711 14.5391 14.1172 14.5156 14.375C14.4688 14.4922 14.4336 14.6445 14.4102 14.832C14.3867 14.9961 14.375 15.1484 14.375 15.2891C14.3047 15.4531 14.2109 15.5938 14.0938 15.7109C14.0469 15.8281 14 15.957 13.9531 16.0977C13.9297 16.2148 13.918 16.3555 13.918 16.5195C13.8477 16.6367 13.8008 16.7656 13.7773 16.9062C13.8242 17.1406 13.7891 17.2812 13.6719 17.3281C13.4609 17.5391 13.3438 17.6211 13.3203 17.5742C13.2969 17.5039 13.2617 17.4453 13.2148 17.3984C12.9102 17.5391 12.7344 17.5977 12.6875 17.5742C12.6406 17.5273 12.5938 17.4922 12.5469 17.4688C12.1953 17.4219 11.9375 17.4219 11.7734 17.4688C11.6328 17.4922 11.4805 17.5156 11.3164 17.5391C10.9414 17.4688 10.6719 17.4688 10.5078 17.5391C10.3438 17.5859 10.1914 17.5508 10.0508 17.4336C9.91016 17.4805 9.75781 17.5273 9.59375 17.5742C9.42969 17.5977 9.28906 17.5625 9.17188 17.4688C9.00781 17.7734 8.87891 17.9961 8.78516 18.1367C8.71484 18.2773 8.67969 18.4062 8.67969 18.5234C8.70312 18.6406 8.73828 18.7344 8.78516 18.8047C8.85547 18.8516 8.86719 18.9336 8.82031 19.0508C8.96094 19.3789 9.00781 19.5898 8.96094 19.6836C8.91406 19.7539 8.86719 19.8359 8.82031 19.9297C8.96094 20.1641 9.00781 20.3047 8.96094 20.3516C8.9375 20.3984 8.90234 20.4453 8.85547 20.4922L8.64453 20.9492C8.66797 21.043 8.66797 21.1133 8.64453 21.1602C8.64453 21.207 8.63281 21.2773 8.60938 21.3711C8.65625 21.4883 8.66797 21.582 8.64453 21.6523C8.64453 21.7227 8.63281 21.8164 8.60938 21.9336C8.65625 22.332 8.70312 22.6602 8.75 22.918C8.79688 23.1523 8.84375 23.375 8.89062 23.5859C8.89062 23.7734 8.84375 23.9258 8.75 24.043C8.67969 24.1367 8.64453 24.2773 8.64453 24.4648C8.87891 24.6289 8.97266 24.7227 8.92578 24.7461C8.87891 24.7695 8.84375 24.8047 8.82031 24.8516C8.82031 25.1797 8.76172 25.4609 8.64453 25.6953C8.52734 25.9297 8.49219 26.1992 8.53906 26.5039C8.63281 26.7852 8.66797 26.9844 8.64453 27.1016C8.64453 27.2188 8.62109 27.3359 8.57422 27.4531C8.55078 27.8047 8.52734 28.0977 8.50391 28.332C8.50391 28.543 8.55078 28.707 8.64453 28.8242C8.80859 29.1289 8.80859 29.293 8.64453 29.3164C8.50391 29.3398 8.375 29.3867 8.25781 29.457C8.14062 29.4102 8.01172 29.3633 7.87109 29.3164C7.73047 29.293 7.58984 29.3047 7.44922 29.3516C7.14453 29.3047 6.88672 29.3164 6.67578 29.3867C6.48828 29.457 6.38281 29.3633 6.35938 29.1055C6.24219 29.1523 6.14844 29.1992 6.07812 29.2461C6.03125 29.293 5.94922 29.3398 5.83203 29.3867C5.45703 29.4336 5.14062 29.457 4.88281 29.457C4.64844 29.457 4.48438 29.3867 4.39062 29.2461C4.27344 29.293 4.16797 29.3164 4.07422 29.3164C3.98047 29.3398 3.875 29.375 3.75781 29.4219C3.47656 29.4453 3.3125 29.4219 3.26562 29.3516C3.24219 29.2812 3.20703 29.2227 3.16016 29.1758C3.04297 29.1992 2.92578 29.2109 2.80859 29.2109C2.71484 29.2344 2.64453 29.2109 2.59766 29.1406C2.52734 29.1641 2.45703 29.1875 2.38672 29.2109C2.33984 29.2578 2.26953 29.2695 2.17578 29.2461C1.98828 29.2227 1.88281 29.2344 1.85938 29.2812C1.83594 29.3281 1.78906 29.3516 1.71875 29.3516C1.625 29.3281 1.53125 29.3281 1.4375 29.3516C1.32031 29.375 1.21484 29.3867 1.12109 29.3867C1.02734 29.4102 0.945312 29.4102 0.875 29.3867C0.804688 29.3867 0.757812 29.3281 0.734375 29.2109C0.804688 29.0938 0.933594 29.0586 1.12109 29.1055C1.21484 29.082 1.29688 29.0469 1.36719 29C1.41406 28.9766 1.47266 28.9531 1.54297 28.9297C1.58984 28.8594 1.63672 28.7891 1.68359 28.7188C1.73047 28.625 1.78906 28.5547 1.85938 28.5078C2.02344 28.4844 2.1875 28.4609 2.35156 28.4375C2.51562 28.4141 2.66797 28.4023 2.80859 28.4023C2.90234 28.3086 2.97266 28.1797 3.01953 28.0156C3.16016 27.9922 3.30078 27.9102 3.44141 27.7695C3.65234 27.6055 3.73438 27.5117 3.6875 27.4883C3.64062 27.4648 3.64062 27.4297 3.6875 27.3828L3.89844 26.9609C3.875 26.75 3.91016 26.6211 4.00391 26.5742C4.09766 26.457 4.19141 26.3633 4.28516 26.293C4.37891 26.1992 4.46094 26.082 4.53125 25.9414C4.4375 25.7305 4.40234 25.6133 4.42578 25.5898C4.44922 25.543 4.46094 25.4961 4.46094 25.4492C4.36719 25.2148 4.37891 25.0156 4.49609 24.8516C4.37891 24.5469 4.35547 24.3594 4.42578 24.2891C4.51953 24.1953 4.57812 24.0664 4.60156 23.9023C4.60156 23.7852 4.57812 23.6797 4.53125 23.5859C4.48438 23.4922 4.4375 23.3984 4.39062 23.3047C4.36719 23.2109 4.34375 23.1289 4.32031 23.0586C4.32031 22.9883 4.35547 22.9062 4.42578 22.8125C4.47266 22.4141 4.49609 22.0977 4.49609 21.8633C4.51953 21.6055 4.54297 21.3477 4.56641 21.0898C4.54297 20.832 4.56641 20.668 4.63672 20.5977C4.70703 20.5039 4.76562 20.3984 4.8125 20.2812C4.67188 20.2578 4.50781 20.2461 4.32031 20.2461C4.15625 20.2461 4.0625 20.1875 4.03906 20.0703C4.0625 19.9297 4.10938 19.8242 4.17969 19.7539C4.27344 19.6602 4.34375 19.5547 4.39062 19.4375C4.39062 19.3203 4.37891 19.2266 4.35547 19.1562C4.35547 19.0625 4.35547 18.957 4.35547 18.8398C4.40234 18.6289 4.47266 18.4766 4.56641 18.3828C4.56641 18.2422 4.58984 18.1016 4.63672 17.9609C4.68359 17.7969 4.68359 17.6211 4.63672 17.4336C4.54297 17.082 4.53125 16.8477 4.60156 16.7305C4.67188 16.6133 4.74219 16.4961 4.8125 16.3789L4.70703 15.9219C4.70703 15.7344 4.67188 15.6055 4.60156 15.5352C4.53125 15.4414 4.48438 15.3125 4.46094 15.1484C4.53125 14.9844 4.53125 14.8086 4.46094 14.6211C4.41406 14.4336 4.40234 14.2461 4.42578 14.0586C4.42578 13.9883 4.4375 13.918 4.46094 13.8477C4.50781 13.7773 4.54297 13.6953 4.56641 13.6016C4.58984 13.4844 4.60156 13.3555 4.60156 13.2148C4.60156 13.0508 4.60156 12.9102 4.60156 12.793C4.60156 12.5117 4.61328 12.3594 4.63672 12.3359C4.66016 12.2891 4.68359 12.2305 4.70703 12.1602C4.70703 11.9258 4.64844 11.7617 4.53125 11.668C4.4375 11.5508 4.35547 11.4102 4.28516 11.2461C4.37891 11.0352 4.41406 10.9062 4.39062 10.8594C4.39062 10.8125 4.39062 10.7539 4.39062 10.6836C4.4375 10.4961 4.48438 10.3086 4.53125 10.1211C4.57812 9.93359 4.625 9.74609 4.67188 9.55859C4.69531 9.37109 4.64844 9.21875 4.53125 9.10156C4.4375 8.98438 4.4375 8.83203 4.53125 8.64453C4.4375 8.41016 4.39062 8.26953 4.39062 8.22266C4.41406 8.15234 4.42578 8.08203 4.42578 8.01172C4.35547 7.56641 4.28516 7.15625 4.21484 6.78125C4.16797 6.71094 4.10938 6.65234 4.03906 6.60547C3.96875 6.53516 3.89844 6.47656 3.82812 6.42969C3.6875 6.26562 3.60547 6.07812 3.58203 5.86719C3.32422 5.82031 3.17188 5.82031 3.125 5.86719C3.10156 5.91406 3.05469 5.94922 2.98438 5.97266C2.84375 5.97266 2.73828 5.94922 2.66797 5.90234C2.59766 5.85547 2.52734 5.79688 2.45703 5.72656C2.26953 5.60937 2.16406 5.5625 2.14062 5.58594C2.11719 5.58594 2.10547 5.5625 2.10547 5.51562C2.10547 5.39844 2.12891 5.30469 2.17578 5.23438C2.22266 5.16406 2.23438 5.07031 2.21094 4.95312C2.1875 4.85938 2.15234 4.78906 2.10547 4.74219C2.05859 4.69531 2.02344 4.625 2 4.53125C1.90625 4.48437 1.82422 4.46094 1.75391 4.46094C1.66016 4.4375 1.58984 4.40234 1.54297 4.35547L1.50781 3.89844ZM34.2453 21.6172C34.3859 21.6172 34.4445 21.6875 34.4211 21.8281C34.3977 21.9688 34.4094 22.0859 34.4563 22.1797C34.4328 22.2734 34.3977 22.3438 34.3508 22.3906C34.3273 22.4375 34.3039 22.4961 34.2805 22.5664C34.257 22.7305 34.2336 22.8945 34.2102 23.0586C34.2102 23.1992 34.1867 23.3281 34.1398 23.4453C33.9055 23.75 33.8 23.9492 33.8234 24.043C33.8469 24.1367 33.8469 24.2422 33.8234 24.3594C33.7063 24.6641 33.6477 24.8984 33.6477 25.0625C33.5539 25.2031 33.4953 25.3789 33.4719 25.5898C33.4484 25.8008 33.4484 26 33.4719 26.1875C33.425 26.3281 33.3313 26.4336 33.1906 26.5039C33.05 26.5742 32.9328 26.668 32.8391 26.7852C32.8391 26.9023 32.8391 27.0312 32.8391 27.1719C32.8625 27.2891 32.8273 27.3828 32.7336 27.4531C32.5227 27.5703 32.4289 27.6758 32.4523 27.7695C32.4758 27.8633 32.4992 27.9453 32.5227 28.0156C32.382 28.2969 32.3 28.4844 32.2766 28.5781C32.2766 28.6484 32.2883 28.7422 32.3117 28.8594C32.2883 29.1172 32.2414 29.2812 32.1711 29.3516C32.0539 29.3516 31.9484 29.3633 31.8547 29.3867C31.7844 29.4102 31.6906 29.4453 31.5734 29.4922C31.4094 29.4922 31.2805 29.457 31.1867 29.3867C30.9523 29.4336 30.8234 29.4336 30.8 29.3867C30.7766 29.3633 30.7414 29.3281 30.6945 29.2812C30.5773 29.2578 30.507 29.293 30.4836 29.3867C30.4836 29.4805 30.425 29.5156 30.3078 29.4922C30.1906 29.2812 30.0734 29.1641 29.9563 29.1406C29.8625 29.1406 29.7688 29.1523 29.675 29.1758C29.5813 29.1289 29.4641 29.1055 29.3234 29.1055C29.1828 29.1055 29.0539 29.1172 28.9367 29.1406C28.8664 29.1172 28.7375 29.082 28.55 29.0352C28.3859 29.0117 28.2805 28.9883 28.2336 28.9648C28.1633 29.0352 28.093 29.1406 28.0227 29.2812C27.9758 29.4453 27.882 29.5391 27.7414 29.5625C27.6477 29.3984 27.6008 29.2695 27.6008 29.1758C27.6242 29.082 27.6477 28.9766 27.6711 28.8594C27.4602 29.1172 27.1906 29.2344 26.8625 29.2109C26.5344 29.1875 26.3 29.1875 26.1594 29.2109C26.0422 29.2344 25.8898 29.2461 25.7023 29.2461C25.5148 29.2461 25.3977 29.1992 25.3508 29.1055C25.1164 29.0586 24.9875 29.0703 24.9641 29.1406C24.9641 29.2109 24.9172 29.2578 24.8234 29.2812C24.5891 29.2578 24.4367 29.2344 24.3664 29.2109C24.1555 29.1406 24.0031 29.1523 23.9094 29.2461C23.8625 29.3164 23.8273 29.375 23.8039 29.4219C23.7805 29.4922 23.7336 29.5508 23.6633 29.5977C23.4055 29.4336 23.2531 29.375 23.2063 29.4219C23.1828 29.4688 23.1125 29.4805 22.9953 29.457C22.9484 29.2461 22.9133 29.1406 22.8898 29.1406C22.8664 29.1406 22.843 29.1289 22.8195 29.1055C22.7023 29.1289 22.6086 29.1641 22.5383 29.2109C22.4914 29.2812 22.3977 29.3047 22.257 29.2812C21.9758 29.1875 21.8234 29.1289 21.8 29.1055C21.8 29.082 21.7766 29.0586 21.7297 29.0352C21.6359 29.0586 21.5422 29.0586 21.4484 29.0352C21.3547 29.0352 21.2609 29.0586 21.1672 29.1055C20.8859 29.1523 20.6281 29.1758 20.3938 29.1758C20.2766 29.2227 20.0891 29.2695 19.8313 29.3164C19.5969 29.3633 19.3859 29.3398 19.1984 29.2461C19.1281 28.9883 19.0344 28.8828 18.9172 28.9297C18.8234 28.9766 18.7297 29.0117 18.6359 29.0352C18.5656 29.082 18.4953 29.1172 18.425 29.1406C18.3547 29.1641 18.2609 29.1992 18.1438 29.2461C18.05 29.2461 17.9797 29.2344 17.9328 29.2109C17.8859 29.2109 17.8273 29.1992 17.757 29.1758C17.6867 29.1992 17.6047 29.2227 17.5109 29.2461C17.4406 29.293 17.3586 29.293 17.2648 29.2461C17.3117 29.1289 17.382 29.0352 17.4758 28.9648C17.5695 28.8945 17.6633 28.8242 17.757 28.7539C17.8273 28.6367 17.9328 28.543 18.0734 28.4727C18.2844 28.2617 18.4016 28.1562 18.425 28.1562C18.4719 28.1562 18.5188 28.1445 18.5656 28.1211C18.6828 28.0508 18.7531 27.9453 18.7766 27.8047C18.8 27.6641 18.8352 27.5234 18.882 27.3828C19.0227 27.1953 19.0578 27.0781 18.9875 27.0312C18.9406 26.9844 18.9289 26.9023 18.9523 26.7852C19.0461 26.6445 19.2453 26.5742 19.55 26.5742C19.5969 26.457 19.5969 26.3516 19.55 26.2578C19.5031 26.1641 19.5031 26.0352 19.55 25.8711C19.5969 25.8242 19.6555 25.8008 19.7258 25.8008C19.7961 25.7773 19.8547 25.7422 19.9016 25.6953C19.925 25.5781 19.925 25.4844 19.9016 25.4141C19.8781 25.3203 19.843 25.2148 19.7961 25.0977C19.843 25.0039 19.8547 24.9102 19.8313 24.8164C19.8313 24.7227 19.8195 24.6289 19.7961 24.5352C19.8195 24.4648 19.843 24.4062 19.8664 24.3594C19.8898 24.3125 19.9016 24.2422 19.9016 24.1484C19.8078 23.9141 19.7961 23.6797 19.8664 23.4453C19.843 23.375 19.7844 23.3281 19.6906 23.3047C19.6203 23.2812 19.5734 23.2344 19.55 23.1641C19.6203 22.8828 19.6203 22.7305 19.55 22.707C19.5031 22.6602 19.4563 22.6016 19.4094 22.5312C19.4094 22.4141 19.4445 22.3438 19.5148 22.3203C19.5852 22.2734 19.6438 22.2148 19.6906 22.1445C19.6906 21.9102 19.6555 21.7227 19.5852 21.582C19.7258 21.3008 19.8078 21.1367 19.8313 21.0898C19.8781 21.0195 19.8781 20.9258 19.8313 20.8086C19.8547 20.668 19.8664 20.5508 19.8664 20.457C19.8898 20.3633 19.9016 20.2578 19.9016 20.1406C19.8313 19.8828 19.8313 19.7422 19.9016 19.7188C19.9719 19.6953 19.9953 19.625 19.9719 19.5078C19.925 19.4609 19.8195 19.3672 19.6555 19.2266C19.6555 19.0625 19.632 18.9453 19.5852 18.875C19.5383 18.7812 19.5148 18.6523 19.5148 18.4883C19.6086 18.2773 19.6438 18.1367 19.6203 18.0664C19.5969 17.9727 19.6086 17.8906 19.6555 17.8203C19.632 17.75 19.5969 17.6914 19.55 17.6445C19.5031 17.5977 19.468 17.5391 19.4445 17.4688C19.468 17.2812 19.5383 17.1172 19.6555 16.9766C19.6086 16.8125 19.6203 16.6836 19.6906 16.5898C19.7609 16.4727 19.8078 16.3438 19.8313 16.2031C19.8313 16.0859 19.8195 15.9922 19.7961 15.9219C19.7727 15.8281 19.7844 15.7227 19.8313 15.6055C19.8078 15.5352 19.7727 15.4766 19.7258 15.4297C19.6789 15.3594 19.6438 15.2891 19.6203 15.2188C19.6203 15.0312 19.6086 14.9258 19.5852 14.9023C19.5617 14.8789 19.5383 14.8438 19.5148 14.7969C19.5148 14.6797 19.5383 14.6094 19.5852 14.5859C19.632 14.5391 19.6789 14.4922 19.7258 14.4453C19.6086 14.1641 19.5617 14.0117 19.5852 13.9883C19.5617 13.7305 19.5969 13.5781 19.6906 13.5312C19.8078 13.4844 19.8898 13.4141 19.9367 13.3203C19.8664 13.2734 19.7844 13.2266 19.6906 13.1797C19.6203 13.1328 19.5617 13.0859 19.5148 13.0391C19.5148 12.9219 19.5266 12.8281 19.55 12.7578C19.5969 12.6875 19.6438 12.6172 19.6906 12.5469C19.7141 12.0078 19.632 11.668 19.4445 11.5273C19.4211 11.4336 19.4211 11.3633 19.4445 11.3164C19.468 11.2461 19.4797 11.1523 19.4797 11.0352C19.2922 10.7773 19.3039 10.4844 19.5148 10.1562C19.3742 9.92188 19.3156 9.79297 19.3391 9.76953C19.3859 9.72266 19.4328 9.67578 19.4797 9.62891C19.4563 9.51172 19.4445 9.41797 19.4445 9.34766C19.468 9.27734 19.5031 9.18359 19.55 9.06641C19.5266 8.83203 19.5031 8.65625 19.4797 8.53906C19.4563 8.42188 19.4445 8.30469 19.4445 8.1875C19.5383 8.09375 19.6203 7.95312 19.6906 7.76562C19.6203 7.50781 19.5969 7.30859 19.6203 7.16797C19.6672 7.00391 19.6672 6.83984 19.6203 6.67578C19.4797 6.58203 19.3742 6.44141 19.3039 6.25391C19.2336 6.01953 19.1867 5.89062 19.1633 5.86719C19.0227 5.58594 18.882 5.43359 18.7414 5.41016C18.6008 5.36328 18.507 5.28125 18.4602 5.16406C18.4836 4.92969 18.4367 4.8125 18.3195 4.8125C18.2023 4.78906 18.1203 4.73047 18.0734 4.63672C18.05 4.35547 17.9914 4.21484 17.8977 4.21484C17.8039 4.19141 17.7102 4.16797 17.6164 4.14453C17.593 4.07422 17.5227 3.98047 17.4055 3.86328C17.2883 3.74609 17.2063 3.66406 17.1594 3.61719C17.5344 3.5 17.7219 3.46484 17.7219 3.51172C17.7219 3.55859 17.8273 3.54688 18.0383 3.47656C18.0617 3.5 18.1438 3.51172 18.2844 3.51172C18.4484 3.48828 18.5422 3.48828 18.5656 3.51172C18.7297 3.58203 18.8234 3.60547 18.8469 3.58203C18.8703 3.55859 18.9055 3.54688 18.9523 3.54688C19.257 3.57031 19.3977 3.53516 19.3742 3.44141C19.4211 3.39453 19.4797 3.37109 19.55 3.37109C19.6438 3.37109 19.7375 3.35937 19.8313 3.33594C20.0188 3.26562 20.1945 3.23047 20.3586 3.23047C20.4055 3.27734 20.4172 3.34766 20.3938 3.44141C20.3938 3.53516 20.3938 3.61719 20.3938 3.6875C20.5344 3.64062 20.6281 3.57031 20.675 3.47656C20.7453 3.38281 20.8508 3.32422 20.9914 3.30078C21.1086 3.32422 21.2375 3.3125 21.3781 3.26562C21.5188 3.21875 21.6359 3.25391 21.7297 3.37109C22.0578 3.32422 22.3625 3.32422 22.6438 3.37109C22.7609 3.32422 22.8664 3.27734 22.9602 3.23047C23.0773 3.18359 23.1945 3.19531 23.3117 3.26562C23.4055 3.40625 23.4758 3.47656 23.5227 3.47656C23.5695 3.47656 23.6047 3.5 23.6281 3.54688C23.6047 3.75781 23.6398 3.93359 23.7336 4.07422C23.7336 4.26172 23.6984 4.40234 23.6281 4.49609C23.5578 4.58984 23.5344 4.73047 23.5578 4.91797C23.675 5.15234 23.757 5.31641 23.8039 5.41016C23.757 5.55078 23.7102 5.69141 23.6633 5.83203C23.6398 5.94922 23.593 6.05469 23.5227 6.14844C23.6164 6.52344 23.6164 6.78125 23.5227 6.92188C23.6633 7.13281 23.7102 7.39062 23.6633 7.69531C23.6398 7.97656 23.675 8.24609 23.7688 8.50391C23.7453 8.73828 23.7453 8.87891 23.7688 8.92578C23.7922 8.94922 23.8156 8.98438 23.8391 9.03125C23.8391 9.33594 23.8508 9.52344 23.8742 9.59375C23.9211 9.64062 23.9328 9.72266 23.9094 9.83984C23.8859 10.168 23.8742 10.3906 23.8742 10.5078C23.7805 10.6953 23.757 10.8945 23.8039 11.1055C23.8508 11.3164 23.8625 11.5508 23.8391 11.8086C23.7922 11.9961 23.7805 12.1133 23.8039 12.1602C23.8273 12.207 23.8508 12.2539 23.8742 12.3008C23.8508 12.3711 23.8391 12.4531 23.8391 12.5469C23.8625 12.6172 23.8508 12.6758 23.8039 12.7227C23.7805 12.9102 23.7805 13.0977 23.8039 13.2852C23.8508 13.4492 23.8742 13.6016 23.8742 13.7422C23.7805 13.9766 23.7453 14.1055 23.7688 14.1289C23.8156 14.1289 23.8508 14.1523 23.8742 14.1992C23.9211 14.3867 23.9211 14.5859 23.8742 14.7969C23.8977 14.9141 23.9211 15.0195 23.9445 15.1133C23.968 15.1836 23.9797 15.2891 23.9797 15.4297C23.9797 15.5469 23.9563 15.6641 23.9094 15.7812C23.8859 15.8984 23.8742 16.0156 23.8742 16.1328C23.8742 16.25 23.8859 16.3789 23.9094 16.5195C23.9328 16.6367 23.9328 16.7539 23.9094 16.8711C23.9094 16.9883 23.8859 17.0938 23.8391 17.1875C23.8156 17.2578 23.7805 17.3516 23.7336 17.4688C23.7805 17.5625 23.8039 17.668 23.8039 17.7852C23.8039 17.9023 23.8273 17.9961 23.8742 18.0664C23.8977 18.2539 23.9211 18.3711 23.9445 18.418C23.9914 18.4648 24.0031 18.5234 23.9797 18.5938C23.9797 18.6641 23.9563 18.7344 23.9094 18.8047C23.8859 18.8516 23.8742 18.9102 23.8742 18.9805C23.968 19.2617 24.0031 19.4375 23.9797 19.5078C23.9563 19.5781 23.9328 19.6484 23.9094 19.7188C23.9328 19.8359 23.9445 19.9648 23.9445 20.1055C23.9445 20.2227 23.9211 20.3398 23.8742 20.457C23.8977 20.5742 23.9094 20.6914 23.9094 20.8086C23.9094 20.9258 23.8859 21.0312 23.8391 21.125C23.9094 21.3125 23.9445 21.5117 23.9445 21.7227C23.9211 21.793 23.8859 21.8633 23.8391 21.9336C23.7922 22.0039 23.7688 22.0977 23.7688 22.2148C23.7922 22.5195 23.7922 22.707 23.7688 22.7773C23.7688 22.8477 23.7688 22.9414 23.7688 23.0586C23.7688 23.1758 23.7922 23.3281 23.8391 23.5156C23.8391 23.6094 23.8273 23.7031 23.8039 23.7969C23.8039 23.8672 23.8156 23.9375 23.8391 24.0078C23.8391 24.1016 23.8508 24.1953 23.8742 24.2891C23.8977 24.3828 23.9328 24.4883 23.9797 24.6055C24.0031 24.6992 24.0031 24.793 23.9797 24.8867C23.9797 24.957 23.9797 25.0391 23.9797 25.1328C24.0266 25.25 24.0617 25.3906 24.0852 25.5547C24.1086 25.6953 24.1789 25.8008 24.2961 25.8711C24.4367 25.8477 24.5539 25.8008 24.6477 25.7305C24.7648 25.6367 24.9172 25.6133 25.1047 25.6602C25.2219 25.6133 25.3625 25.543 25.5266 25.4492C25.7141 25.3555 25.8898 25.3203 26.0539 25.3438C26.1945 25.5078 26.382 25.5664 26.6164 25.5195C26.8742 25.4492 27.0734 25.4375 27.2141 25.4844C27.3313 25.4609 27.4133 25.4141 27.4602 25.3438C27.507 25.25 27.6008 25.2266 27.7414 25.2734C27.7883 25.3438 27.8352 25.4258 27.882 25.5195C27.9523 25.5898 27.9641 25.6719 27.9172 25.7656C27.9406 25.7656 28.0109 25.7656 28.1281 25.7656C28.2453 25.7422 28.3625 25.7305 28.4797 25.7305C28.5969 25.7305 28.7023 25.7422 28.7961 25.7656C28.9133 25.7656 28.9719 25.7891 28.9719 25.8359C29.0422 25.7891 29.1008 25.7539 29.1477 25.7305C29.1945 25.6836 29.2648 25.6484 29.3586 25.625C29.4289 25.6484 29.5227 25.625 29.6398 25.5547C29.757 25.4609 29.8742 25.3789 29.9914 25.3086C30.1086 25.2148 30.2258 25.1445 30.343 25.0977C30.4836 25.0273 30.5891 25.0156 30.6594 25.0625C30.7297 25.0156 30.7883 24.9453 30.8352 24.8516C30.882 24.7578 30.9523 24.7344 31.0461 24.7812C31.1633 24.8516 31.2453 24.8633 31.2922 24.8164C31.3625 24.7461 31.4563 24.7109 31.5734 24.7109C31.6906 24.6641 31.7727 24.6055 31.8195 24.5352C31.8898 24.4414 31.9719 24.3594 32.0656 24.2891C32.0891 24.0547 32.1711 23.8906 32.3117 23.7969C32.593 23.75 32.7453 23.6797 32.7688 23.5859C32.8156 23.4922 32.8156 23.4102 32.7688 23.3398C32.8859 23.2227 32.9445 23.0703 32.9445 22.8828C33.0148 22.7656 33.1555 22.7539 33.3664 22.8477C33.4602 22.8008 33.5188 22.7422 33.5422 22.6719C33.5891 22.5781 33.6359 22.4727 33.6828 22.3555C33.8 22.2383 33.882 22.0977 33.9289 21.9336C33.9758 21.7695 34.0813 21.6641 34.2453 21.6172ZM41.3187 23.7969C41.3187 23.9844 41.2484 24.1133 41.1078 24.1836C41.1547 24.3945 41.1664 24.5117 41.143 24.5352C41.1195 24.5352 41.0961 24.5469 41.0727 24.5703C41.0727 24.7812 41.0375 24.9688 40.9672 25.1328C41.1312 25.3906 41.2016 25.5312 41.1781 25.5547C41.1547 25.5781 41.1312 25.6133 41.1078 25.6602C41.2016 25.9648 41.143 26.1523 40.932 26.2227C40.9555 26.3398 40.9906 26.4453 41.0375 26.5391C41.0844 26.6328 41.1312 26.7383 41.1781 26.8555C41.1312 27.0195 41.0961 27.1602 41.0727 27.2773C41.0727 27.3711 41.0609 27.4414 41.0375 27.4883C41.0609 27.6055 41.1078 27.7227 41.1781 27.8398C41.2719 27.9336 41.2836 28.0625 41.2133 28.2266C41.0023 28.3906 40.9086 28.4844 40.932 28.5078C40.9555 28.5312 40.9789 28.5664 41.0023 28.6133C41.0023 28.7305 41.0141 28.8359 41.0375 28.9297C41.0844 29 41.1078 29.082 41.1078 29.1758C40.9672 29.3164 40.8734 29.4102 40.8266 29.457C40.7797 29.5273 40.7094 29.5742 40.6156 29.5977C40.4516 29.3867 40.3344 29.3047 40.2641 29.3516C40.1937 29.3984 40.1352 29.3867 40.0883 29.3164C40.0648 29.1758 40.1 29.082 40.1937 29.0352C40.2875 29.0117 40.3461 28.9414 40.3695 28.8242C40.2523 28.8477 40.1703 28.8828 40.1234 28.9297C40.0766 28.9766 40.018 29.0234 39.9477 29.0703C39.8773 29.1172 39.8187 29.1641 39.7719 29.2109C39.725 29.2812 39.6664 29.3398 39.5961 29.3867C39.5258 29.3633 39.4672 29.3164 39.4203 29.2461C39.3734 29.1992 39.3266 29.1523 39.2797 29.1055C39.2797 29.0352 39.3031 28.9062 39.35 28.7188C39.2328 28.7422 39.1625 28.7891 39.1391 28.8594C39.1391 28.9297 39.1391 29.0117 39.1391 29.1055C39.0219 29.1992 38.8344 29.2344 38.5766 29.2109C38.3187 29.2109 38.1781 29.1055 38.1547 28.8945C38.0609 28.9414 37.9203 28.9648 37.7328 28.9648C37.5687 29.082 37.4281 29.1406 37.3109 29.1406C37.1234 29.0938 36.9594 29.0938 36.8187 29.1406C36.5375 29.0234 36.35 29.0117 36.2562 29.1055C36.1859 29.2227 36.0922 29.2461 35.975 29.1758C35.6937 29.1055 35.5297 29.082 35.4828 29.1055C35.4359 29.1289 35.3773 29.1406 35.307 29.1406C35.2602 29.1406 35.2016 29.1289 35.1312 29.1055C35.0609 29.1055 34.9906 29.1055 34.9203 29.1055C34.85 29.0586 34.7914 29.0117 34.7445 28.9648C34.6977 28.918 34.6625 28.8359 34.6391 28.7188C34.7797 28.5781 34.8617 28.5195 34.8852 28.543C34.932 28.5664 34.9789 28.5898 35.0258 28.6133C35.2133 28.3555 35.3305 28.1914 35.3773 28.1211C35.4477 28.0273 35.5062 27.9336 35.5531 27.8398C35.6469 27.6289 35.7172 27.5469 35.7641 27.5938C35.8109 27.6172 35.8578 27.6172 35.9047 27.5938C35.9984 27.3125 36.0219 27.1367 35.975 27.0664C35.9281 26.9961 35.9047 26.9023 35.9047 26.7852C35.975 26.668 36.057 26.6445 36.1508 26.7148C36.2445 26.7852 36.3266 26.8438 36.3969 26.8906C36.4437 26.6562 36.4906 26.5508 36.5375 26.5742C36.5844 26.5742 36.6195 26.5508 36.643 26.5039C36.6664 26.457 36.6664 26.3984 36.643 26.3281C36.643 26.2344 36.6547 26.1523 36.6781 26.082C36.6312 26.0117 36.5844 25.9531 36.5375 25.9062C36.4906 25.8594 36.4672 25.7773 36.4672 25.6602C36.5375 25.5664 36.6078 25.4844 36.6781 25.4141C36.7719 25.3438 36.8305 25.2266 36.8539 25.0625C36.8305 24.7578 36.7836 24.5938 36.7133 24.5703C36.6664 24.5469 36.643 24.4766 36.643 24.3594C36.7602 24.125 36.7602 23.9375 36.643 23.7969C36.5258 23.6328 36.5258 23.4453 36.643 23.2344C36.6195 22.8828 36.6547 22.6367 36.7484 22.4961C36.6781 22.3086 36.643 22.2031 36.643 22.1797C36.643 22.1328 36.6547 22.0859 36.6781 22.0391C36.6078 21.8047 36.5844 21.6523 36.6078 21.582C36.6312 21.4883 36.643 21.3945 36.643 21.3008C36.5727 21.0664 36.5492 20.9375 36.5727 20.9141C36.6195 20.8672 36.6547 20.8203 36.6781 20.7734C36.6781 20.6328 36.6664 20.4922 36.643 20.3516C36.6195 20.2109 36.643 20.1172 36.7133 20.0703C36.6664 19.9531 36.643 19.8359 36.643 19.7188C36.6664 19.5781 36.6781 19.4141 36.6781 19.2266C36.5609 18.9688 36.5141 18.793 36.5375 18.6992C36.5844 18.582 36.6312 18.4648 36.6781 18.3477C36.6312 18.3008 36.6078 18.2305 36.6078 18.1367C36.6078 18.0195 36.643 17.9375 36.7133 17.8906C36.6664 17.8438 36.6078 17.7969 36.5375 17.75C36.4906 17.6797 36.4555 17.6094 36.432 17.5391C36.4789 17.375 36.5609 17.2578 36.6781 17.1875C36.7953 17.0938 36.8773 16.9531 36.9242 16.7656C36.7836 16.5078 36.7133 16.3555 36.7133 16.3086C36.7367 16.2617 36.7484 16.2031 36.7484 16.1328C36.6781 16.0391 36.6312 15.9219 36.6078 15.7812C36.6078 15.6406 36.6547 15.5234 36.7484 15.4297C36.7719 15.2656 36.7953 15.1602 36.8187 15.1133C36.8422 15.0664 36.8773 15.0078 36.9242 14.9375C36.8305 14.7969 36.725 14.6797 36.6078 14.5859C36.5141 14.4922 36.4672 14.3516 36.4672 14.1641C36.5375 14.0234 36.5844 13.9297 36.6078 13.8828C36.6547 13.8359 36.7016 13.7891 36.7484 13.7422C36.7484 13.2734 36.7133 12.8633 36.643 12.5117C36.5727 12.1602 36.5492 11.8203 36.5727 11.4922C36.6664 11.3516 36.7367 11.1992 36.7836 11.0352C36.8539 10.8711 36.9477 10.7305 37.0648 10.6133C37.018 10.4961 36.9594 10.4141 36.8891 10.3672C36.8187 10.2969 36.7602 10.2148 36.7133 10.1211C36.6898 9.86328 36.7133 9.59375 36.7836 9.3125C36.7836 9.10156 36.8187 8.99609 36.8891 8.99609C36.9594 8.97266 37.0062 8.92578 37.0297 8.85547C36.9828 8.71484 36.8891 8.62109 36.7484 8.57422C36.6312 8.52734 36.5492 8.44531 36.5023 8.32812C36.5258 8.23438 36.5609 8.14062 36.6078 8.04688C36.6547 7.95312 36.6664 7.85938 36.643 7.76562C36.6898 7.48438 36.7016 7.32031 36.6781 7.27344C36.6547 7.20312 36.643 7.14453 36.643 7.09766C36.643 6.91016 36.6312 6.79297 36.6078 6.74609C36.6078 6.67578 36.5844 6.61719 36.5375 6.57031C36.5609 6.45312 36.5961 6.37109 36.643 6.32422C36.7133 6.27734 36.7719 6.21875 36.8187 6.14844C36.7484 6.07812 36.6664 5.98438 36.5727 5.86719C36.4789 5.72656 36.4789 5.57422 36.5727 5.41016C36.5258 5.36328 36.4672 5.32812 36.3969 5.30469C36.35 5.25781 36.3148 5.19922 36.2914 5.12891C36.3148 4.91797 36.2914 4.78906 36.2211 4.74219C36.1742 4.67188 36.1273 4.61328 36.0805 4.56641C35.8695 4.54297 35.7406 4.48437 35.6937 4.39062C35.4828 4.17969 35.3187 4.09766 35.2016 4.14453C35.0844 4.16797 35.0023 4.12109 34.9555 4.00391C34.8148 3.76953 34.7328 3.64062 34.7094 3.61719C34.7094 3.59375 34.7094 3.55859 34.7094 3.51172C34.8266 3.44141 34.9789 3.40625 35.1664 3.40625C35.3773 3.38281 35.5531 3.39453 35.6937 3.44141C35.7641 3.55859 35.8695 3.62891 36.0102 3.65234C36.1742 3.67578 36.3148 3.72266 36.432 3.79297C36.7602 3.76953 36.9711 3.71094 37.0648 3.61719C37.1586 3.52344 37.2992 3.48828 37.4867 3.51172C37.557 3.46484 37.6391 3.44141 37.7328 3.44141C37.85 3.41797 37.9437 3.38281 38.0141 3.33594C38.3187 3.38281 38.5062 3.42969 38.5766 3.47656C38.6469 3.52344 38.7172 3.57031 38.7875 3.61719C39.1625 3.64062 39.4555 3.62891 39.6664 3.58203C39.8773 3.51172 40.0766 3.42969 40.2641 3.33594C40.5687 3.3125 40.768 3.37109 40.8617 3.51172C40.8852 3.62891 40.932 3.6875 41.0023 3.6875C41.0727 3.6875 41.1195 3.72266 41.143 3.79297C41.143 3.93359 41.0727 4.01563 40.932 4.03906C40.8148 4.03906 40.7211 4.08594 40.6508 4.17969C40.8148 4.4375 40.8852 4.58984 40.8617 4.63672C40.8383 4.66016 40.8266 4.69531 40.8266 4.74219C40.8969 4.92969 40.8852 5.07031 40.7914 5.16406C40.8383 5.23438 40.8734 5.30469 40.8969 5.375C40.9437 5.42188 40.9789 5.49219 41.0023 5.58594C40.9789 5.77344 40.9086 5.92578 40.7914 6.04297C40.8852 6.30078 40.9437 6.45312 40.9672 6.5C41.0141 6.52344 41.0492 6.57031 41.0727 6.64062C41.0492 6.78125 40.9906 6.88672 40.8969 6.95703C40.8266 7.02734 40.7562 7.10938 40.6859 7.20312C40.7797 7.4375 40.8383 7.58984 40.8617 7.66016C40.9086 7.70703 40.9555 7.76562 41.0023 7.83594C41.0023 8.04688 40.9437 8.21094 40.8266 8.32812C40.7328 8.44531 40.6625 8.59766 40.6156 8.78516C40.7562 9.06641 40.8617 9.23047 40.932 9.27734C41.0258 9.30078 41.0844 9.35938 41.1078 9.45312C41.0375 9.64062 41.0141 9.74609 41.0375 9.76953C41.0609 9.76953 41.0609 9.79297 41.0375 9.83984C41.0141 9.93359 40.9789 10.0039 40.932 10.0508C40.8852 10.0977 40.8734 10.1797 40.8969 10.2969C40.9203 10.4141 40.9555 10.4961 41.0023 10.543C41.0727 10.5898 41.1195 10.6719 41.143 10.7891C41.1195 10.9062 41.0727 11 41.0023 11.0703C40.9555 11.1172 40.9086 11.1758 40.8617 11.2461C41.0258 11.6211 41.1312 11.8672 41.1781 11.9844C41.1312 12.2188 41.0844 12.4297 41.0375 12.6172C41.0141 12.8047 41.0023 13.0039 41.0023 13.2148C40.9555 13.5664 40.9437 13.8008 40.9672 13.918C40.9906 13.9883 41.0258 14.0469 41.0727 14.0938C41.143 14.1172 41.1898 14.1758 41.2133 14.2695C41.1664 14.5508 41.0727 14.7734 40.932 14.9375C40.8148 15.1016 40.6742 15.2539 40.5102 15.3945C40.5336 15.4414 40.5922 15.4531 40.6859 15.4297C40.7797 15.4062 40.85 15.418 40.8969 15.4648C40.9203 15.582 40.9203 15.6641 40.8969 15.7109C40.8734 15.7578 40.85 15.8047 40.8266 15.8516C41.0375 16.0156 41.1195 16.1445 41.0727 16.2383C41.0492 16.332 41.0141 16.4141 40.9672 16.4844C41.1078 16.8594 41.1664 17.1523 41.143 17.3633C41.1195 17.5508 41.0609 17.7383 40.9672 17.9258C40.9906 18.2773 41.0141 18.5586 41.0375 18.7695C40.9906 18.8867 40.932 18.9805 40.8617 19.0508C40.8148 19.1211 40.768 19.2148 40.7211 19.332C40.8852 19.5898 40.9906 19.7422 41.0375 19.7891C40.9906 19.8828 40.9906 19.9531 41.0375 20C41.1078 20.0469 41.143 20.1055 41.143 20.1758C41.1664 20.293 41.143 20.375 41.0727 20.4219C41.0023 20.4688 40.9203 20.5273 40.8266 20.5977C40.8969 20.9492 40.9437 21.2305 40.9672 21.4414C41.0141 21.6289 40.9906 21.8164 40.8969 22.0039C40.9672 22.3789 40.9672 22.6484 40.8969 22.8125C40.8969 22.9297 40.8969 23.0352 40.8969 23.1289C40.9203 23.1992 40.9086 23.2812 40.8617 23.375C40.9086 23.4688 40.9789 23.5391 41.0727 23.5859C41.1898 23.6094 41.2719 23.6797 41.3187 23.7969ZM63.2633 29.3516C62.9352 29.375 62.7125 29.3633 62.5953 29.3164C62.5016 29.2695 62.3961 29.2344 62.2789 29.2109C62.1617 29.2344 62.0797 29.2695 62.0328 29.3164C62.0094 29.3867 61.9508 29.4219 61.857 29.4219C61.6695 29.3984 61.5289 29.3398 61.4352 29.2461C61.3648 29.1523 61.2711 29.0586 61.1539 28.9648C61.0836 29.0117 61.0367 29.1055 61.0133 29.2461C61.0133 29.3867 60.9781 29.4805 60.9078 29.5273C60.7203 29.5508 60.6031 29.5273 60.5563 29.457C60.5094 29.3867 60.4625 29.293 60.4156 29.1758C60.2984 29.1758 60.2047 29.1992 60.1344 29.2461C60.0641 29.293 59.982 29.3398 59.8883 29.3867C59.7711 29.4102 59.6773 29.4102 59.607 29.3867C59.5602 29.3633 59.5016 29.3398 59.4313 29.3164C59.3141 29.3633 59.1969 29.3633 59.0797 29.3164C58.9859 29.293 58.8688 29.2812 58.7281 29.2812C58.4 29.2344 58.2359 29.2578 58.2359 29.3516C58.2359 29.4453 58.1773 29.5156 58.0602 29.5625C57.943 29.5156 57.8727 29.4336 57.8492 29.3164C57.8492 29.2227 57.8258 29.1289 57.7789 29.0352C57.732 29.0117 57.6852 29.0352 57.6383 29.1055C57.5914 29.1992 57.5211 29.2461 57.4273 29.2461C57.3336 29.2461 57.2633 29.2227 57.2164 29.1758C57.1695 29.1523 57.1109 29.1172 57.0406 29.0703C56.9234 29.0938 56.8648 29.1523 56.8648 29.2461C56.8648 29.3398 56.8297 29.4219 56.7594 29.4922C56.6891 29.4922 56.607 29.4922 56.5133 29.4922C56.443 29.5156 56.3727 29.5039 56.3023 29.457C56.2555 29.3633 56.232 29.2695 56.232 29.1758C56.2555 29.082 56.2789 28.9766 56.3023 28.8594C56.2555 28.7422 56.1969 28.6367 56.1266 28.543C56.0563 28.4492 55.9625 28.3438 55.8453 28.2266C55.6344 27.9922 55.5406 27.8164 55.5641 27.6992C55.5172 27.582 55.4586 27.4883 55.3883 27.418C55.3414 27.3242 55.3063 27.207 55.2828 27.0664C55.2594 26.9961 55.2594 26.9375 55.2828 26.8906C55.3063 26.8203 55.3063 26.7383 55.2828 26.6445C55.2594 26.5508 55.2008 26.4922 55.107 26.4688C55.0367 26.4453 55.0016 26.375 55.0016 26.2578C55.0484 26 55.0016 25.8008 54.8609 25.6602C54.7203 25.5195 54.6734 25.2852 54.7203 24.957C54.6734 24.8633 54.6148 24.793 54.5445 24.7461C54.4977 24.6992 54.4508 24.6406 54.4039 24.5703C54.2164 24.2188 54.0641 23.8672 53.9469 23.5156C53.9703 23.2109 53.9 23.0469 53.7359 23.0234C53.5719 23 53.4664 22.9297 53.4195 22.8125C53.4664 22.7422 53.5133 22.6836 53.5602 22.6367C53.607 22.5898 53.6188 22.5078 53.5953 22.3906C53.5484 22.2969 53.4898 22.2383 53.4195 22.2148C53.3727 22.1914 53.3258 22.1562 53.2789 22.1094C53.3023 21.9922 53.2906 21.9102 53.2438 21.8633C53.2203 21.8164 53.1852 21.7695 53.1383 21.7227C53.0914 21.4883 53.0445 21.3125 52.9977 21.1953C52.857 21.0781 52.7633 20.9961 52.7164 20.9492C52.693 20.8789 52.6578 20.8203 52.6109 20.7734C52.6344 20.5156 52.6227 20.3867 52.5758 20.3867C52.5523 20.3633 52.5406 20.3281 52.5406 20.2812C52.5406 20.6328 52.5055 20.8906 52.4352 21.0547C52.3883 21.1953 52.3297 21.3359 52.2594 21.4766C52.2594 21.7344 52.2008 21.9453 52.0836 22.1094C51.9664 22.25 51.8961 22.4492 51.8727 22.707C51.6852 22.9414 51.5797 23.1055 51.5563 23.1992C51.5328 23.2695 51.4977 23.3281 51.4508 23.375C51.4039 23.3984 51.3453 23.4102 51.275 23.4102C51.2047 23.4102 51.1344 23.4102 51.0641 23.4102C50.9703 23.4805 50.9352 23.5977 50.9586 23.7617C51.0055 23.9023 51.0289 24.0312 51.0289 24.1484C51.0289 24.2188 51.0172 24.2891 50.9938 24.3594C50.9938 24.4297 50.9938 24.5 50.9938 24.5703C50.8531 24.8047 50.7477 24.9336 50.6773 24.957C50.6305 24.9805 50.5602 25.0039 50.4664 25.0273V25.6602C50.4195 25.8711 50.3492 26.0586 50.2555 26.2227C50.1617 26.3867 50.0797 26.5742 50.0094 26.7852C49.9625 26.8789 49.9156 26.9375 49.8688 26.9609C49.8219 26.9844 49.7516 27.0078 49.6578 27.0312C49.6813 27.2188 49.6813 27.4062 49.6578 27.5938C49.6344 27.7812 49.5992 27.9688 49.5523 28.1562C49.4117 28.4141 49.3297 28.5664 49.3063 28.6133C49.2828 28.6367 49.2594 28.6836 49.2359 28.7539C49.3063 28.9414 49.3297 29.1172 49.3063 29.2812C49.2828 29.4453 49.1773 29.5508 48.9898 29.5977C48.8023 29.5742 48.6617 29.5039 48.568 29.3867C48.4742 29.2695 48.3453 29.1758 48.1813 29.1055C48.1109 29.0586 48.0406 29.0586 47.9703 29.1055C47.9234 29.1523 47.8531 29.1641 47.7594 29.1406C47.6188 29.0938 47.4898 29.0352 47.3727 28.9648C47.2789 28.8711 47.1734 28.7773 47.0563 28.6836C46.9391 28.707 46.8453 28.7656 46.775 28.8594C46.7281 28.9297 46.6461 28.9883 46.5289 29.0352C46.2711 28.9414 46.1188 28.918 46.0719 28.9648C46.025 28.9883 45.9781 28.9883 45.9313 28.9648C45.7203 28.8945 45.5914 28.9062 45.5445 29C45.4977 29.0938 45.3922 29.1523 45.2281 29.1758C44.9469 29.1758 44.7242 29.1758 44.5602 29.1758C44.4195 29.1758 44.2789 29.1992 44.1383 29.2461C44.068 29.2227 44.0211 29.1758 43.9977 29.1055C43.9742 29.0352 43.9039 29 43.7867 29C43.5289 29.1406 43.3414 29.2461 43.2242 29.3164C43.0836 29.3867 42.9313 29.3867 42.7672 29.3164C42.7203 29.3164 42.6617 29.3398 42.5914 29.3867C42.4977 29.4336 42.4273 29.4219 42.3805 29.3516C42.193 29.2109 42.0992 29.1172 42.0992 29.0703C42.0992 28.9531 42.1578 28.9062 42.275 28.9297C42.3688 28.9297 42.4391 28.9531 42.4859 29C42.5563 29 42.6266 29 42.6969 29C42.7438 29.0234 42.8023 29.0234 42.8727 29C43.0602 28.9062 43.1891 28.7773 43.2594 28.6133C43.3297 28.543 43.4 28.4727 43.4703 28.4023C43.5406 28.332 43.6227 28.2617 43.7164 28.1914C43.9273 28.1914 44.0563 28.2383 44.1031 28.332C44.15 28.4023 44.232 28.4609 44.3492 28.5078C44.443 28.3906 44.5016 28.2383 44.525 28.0508C44.525 27.8398 44.5836 27.6875 44.7008 27.5938C44.9352 27.5469 45.0758 27.5117 45.1227 27.4883C45.193 27.4414 45.275 27.3945 45.3688 27.3477C45.4156 27.2305 45.4391 27.0898 45.4391 26.9258C45.4625 26.7383 45.5211 26.5859 45.6148 26.4688C45.7555 26.2344 45.8375 26.1055 45.8609 26.082C45.9078 26.0352 45.943 25.9883 45.9664 25.9414C45.9664 25.7773 45.9898 25.6484 46.0367 25.5547C46.107 25.4609 46.1305 25.3203 46.107 25.1328C46.2477 24.9453 46.3766 24.7578 46.4938 24.5703C46.6344 24.3828 46.7633 24.1836 46.8805 23.9727C46.857 23.8789 46.8453 23.7852 46.8453 23.6914C46.8688 23.5977 46.8688 23.5039 46.8453 23.4102C46.9391 23.2227 47.0328 23.0703 47.1266 22.9531C47.2438 22.8125 47.3609 22.6602 47.4781 22.4961C47.5953 22.4727 47.6773 22.4375 47.7242 22.3906C47.7711 22.3203 47.818 22.25 47.8648 22.1797C47.8883 22.0156 47.8883 21.875 47.8648 21.7578C47.8414 21.6406 47.8063 21.5234 47.7594 21.4062C48.0172 21.2422 48.1813 20.9258 48.2516 20.457C48.2281 20.3867 48.193 20.3281 48.1461 20.2812C48.1227 20.2109 48.1109 20.1289 48.1109 20.0352C48.2047 19.8477 48.3336 19.6953 48.4977 19.5781C48.6852 19.4375 48.8492 19.2852 48.9898 19.1211C49.0367 18.957 49.107 18.8281 49.2008 18.7344C49.2945 18.6172 49.3648 18.4766 49.4117 18.3125C49.4586 18.0312 49.5055 17.8555 49.5523 17.7852C49.5992 17.6914 49.6461 17.5859 49.693 17.4688C49.7164 17.4219 49.7398 17.3047 49.7633 17.1172C49.8102 16.9297 49.857 16.7305 49.9039 16.5195C49.9508 16.2852 49.9859 16.0742 50.0094 15.8867C50.0563 15.6992 50.1031 15.582 50.15 15.5352C50.0328 15.4883 49.9859 15.4297 50.0094 15.3594C50.0563 15.2656 50.1031 15.1953 50.15 15.1484C50.0797 14.9141 50.0094 14.7383 49.9391 14.6211C49.8688 14.4805 49.8453 14.3516 49.8688 14.2344C49.7516 14.1172 49.6461 14.0352 49.5523 13.9883C49.4117 13.707 49.3297 13.4609 49.3063 13.25C49.2828 13.0156 49.2242 12.8164 49.1305 12.6523C48.943 12.6055 48.8141 12.5352 48.7438 12.4414C48.7438 12.3008 48.7555 12.1719 48.7789 12.0547C48.8023 11.9375 48.8141 11.7969 48.8141 11.6328C48.65 11.3516 48.5328 11.1406 48.4625 11C48.4156 10.8359 48.4156 10.6602 48.4625 10.4727C48.275 10.4258 48.1227 10.3789 48.0055 10.332C47.8883 10.2852 47.7945 10.2031 47.7242 10.0859C47.6305 9.78125 47.5016 9.58203 47.3375 9.48828C47.1969 9.39453 47.1266 9.24219 47.1266 9.03125C47.1969 8.77344 47.2203 8.60938 47.1969 8.53906C47.1969 8.44531 47.1969 8.33984 47.1969 8.22266C47.15 8.15234 47.0914 8.08203 47.0211 8.01172C46.9742 7.91797 46.9273 7.83594 46.8805 7.76562C46.693 7.39062 46.5055 7.19141 46.318 7.16797C46.1539 7.14453 46.025 7.07422 45.9313 6.95703C45.8844 6.83984 45.8609 6.74609 45.8609 6.67578C45.8609 6.58203 45.8492 6.47656 45.8258 6.35938C45.7789 6.28906 45.7203 6.24219 45.65 6.21875C45.6031 6.17188 45.5797 6.08984 45.5797 5.97266C45.5094 5.62109 45.3688 5.43359 45.1578 5.41016C44.9469 5.38672 44.8063 5.30469 44.7359 5.16406C44.4781 5.21094 44.3023 5.17578 44.2086 5.05859C44.068 4.89453 43.9625 4.82422 43.8922 4.84766C43.7984 4.87109 43.7164 4.84766 43.6461 4.77734C43.6227 4.80078 43.5875 4.78906 43.5406 4.74219C43.4703 4.69531 43.4117 4.63672 43.3648 4.56641C43.2945 4.49609 43.2359 4.4375 43.1891 4.39062C43.1422 4.34375 43.1188 4.33203 43.1188 4.35547C43.0016 4.40234 42.8727 4.41406 42.732 4.39062C42.5914 4.36719 42.5211 4.30859 42.5211 4.21484C42.4508 3.95703 42.3688 3.81641 42.275 3.79297C42.2047 3.67578 42.2281 3.62891 42.3453 3.65234C42.4625 3.65234 42.5914 3.66406 42.732 3.6875C42.8492 3.71094 42.9664 3.72266 43.0836 3.72266C43.2008 3.69922 43.3063 3.64062 43.4 3.54688C43.4938 3.54688 43.5758 3.53516 43.6461 3.51172C43.693 3.48828 43.7633 3.47656 43.857 3.47656C44.1148 3.57031 44.2438 3.60547 44.2438 3.58203C44.2438 3.53516 44.2672 3.51172 44.3141 3.51172C44.4547 3.48828 44.5719 3.5 44.6656 3.54688C44.7828 3.59375 44.9234 3.61719 45.0875 3.61719C45.1578 3.59375 45.2164 3.57031 45.2633 3.54688C45.3336 3.52344 45.4156 3.52344 45.5094 3.54688C45.7203 3.5 45.8961 3.41797 46.0367 3.30078C46.2008 3.18359 46.3766 3.10156 46.5641 3.05469C46.7984 3.10156 46.9273 3.19531 46.9508 3.33594C47.068 3.38281 47.1617 3.44141 47.232 3.51172C47.3258 3.58203 47.4313 3.64062 47.5484 3.6875C47.6656 3.66406 47.7828 3.65234 47.9 3.65234C48.0406 3.62891 48.1695 3.59375 48.2867 3.54688C48.4273 3.57031 48.5445 3.59375 48.6383 3.61719C48.732 3.64062 48.8375 3.62891 48.9547 3.58203C49.2594 3.72266 49.4469 3.73438 49.5172 3.61719C49.6109 3.47656 49.7633 3.38281 49.9742 3.33594C50.0914 3.5 50.1266 3.64062 50.0797 3.75781C50.0328 3.85156 49.9977 3.95703 49.9742 4.07422C50.0914 4.28516 50.1266 4.40234 50.0797 4.42578C50.0328 4.42578 49.9859 4.44922 49.9391 4.49609C49.9156 4.56641 49.8688 4.63672 49.7984 4.70703C49.7516 4.75391 49.7398 4.82422 49.7633 4.91797C49.8336 5.03516 49.9391 5.10547 50.0797 5.12891C50.2438 5.12891 50.3609 5.1875 50.4313 5.30469C50.4313 5.51562 50.4195 5.73828 50.3961 5.97266C50.3961 6.18359 50.4898 6.3125 50.6773 6.35938C50.7711 6.5 50.8648 6.61719 50.9586 6.71094C51.0758 6.80469 51.1695 6.92188 51.2398 7.0625C51.2633 7.34375 51.2516 7.58984 51.2047 7.80078C51.1578 7.98828 51.1461 8.19922 51.1695 8.43359C51.2867 8.57422 51.4039 8.78516 51.5211 9.06641C51.6383 9.34766 51.7555 9.58203 51.8727 9.76953C51.9195 9.86328 51.943 9.96875 51.943 10.0859C51.943 10.2031 51.9664 10.3203 52.0133 10.4375C52.0836 10.625 52.2242 10.7305 52.4352 10.7539C52.6461 10.7539 52.8219 10.8242 52.9625 10.9648C53.0094 10.8477 53.0328 10.7305 53.0328 10.6133C53.0563 10.4727 53.1148 10.3789 53.2086 10.332C53.3023 10.3086 53.3609 10.2148 53.3844 10.0508C53.4313 9.86328 53.4781 9.80469 53.525 9.875C53.6891 9.73438 53.7359 9.52344 53.6656 9.24219C53.6188 8.96094 53.5719 8.71484 53.525 8.50391C53.5719 8.10547 53.6656 7.8125 53.8063 7.625C53.9469 7.50781 54.0875 7.39062 54.2281 7.27344C54.3688 7.15625 54.4977 7.01562 54.6148 6.85156C54.6148 6.71094 54.6031 6.55859 54.5797 6.39453C54.5797 6.20703 54.5914 6.04297 54.6148 5.90234C54.6383 5.76172 54.6852 5.64453 54.7555 5.55078C54.8258 5.45703 54.9547 5.42188 55.1422 5.44531C55.2828 5.32812 55.3531 5.14063 55.3531 4.88281C55.3766 4.625 55.4469 4.4375 55.5641 4.32031C55.6344 4.08594 55.7047 3.95703 55.775 3.93359C55.8688 3.91016 55.9391 3.86328 55.9859 3.79297C55.8453 3.51172 55.8336 3.34766 55.9508 3.30078C56.2555 3.25391 56.4898 3.24219 56.6539 3.26562C56.8414 3.28906 56.9938 3.33594 57.1109 3.40625C57.2516 3.38281 57.3805 3.34766 57.4977 3.30078C57.6383 3.23047 57.7906 3.23047 57.9547 3.30078C58.0719 3.44141 58.1656 3.48828 58.2359 3.44141C58.3297 3.37109 58.4234 3.3125 58.5172 3.26562C58.8453 3.19531 59.0563 3.18359 59.15 3.23047C59.3141 3.16016 59.4664 3.14844 59.607 3.19531C59.7711 3.21875 59.9 3.27734 59.9938 3.37109C60.275 3.44141 60.5328 3.46484 60.7672 3.44141C61.025 3.39453 61.2711 3.33594 61.5055 3.26562C61.7633 3.3125 61.9391 3.32422 62.0328 3.30078C62.1266 3.25391 62.2086 3.25391 62.2789 3.30078C62.3961 3.46484 62.525 3.51172 62.6656 3.44141C62.8297 3.37109 62.9352 3.39453 62.982 3.51172C62.9586 3.65234 62.8883 3.74609 62.7711 3.79297C62.6773 3.83984 62.5953 3.89844 62.525 3.96875C62.3141 3.99219 62.1383 4.03906 61.9977 4.10938C61.857 4.15625 61.7047 4.21484 61.5406 4.28516C61.4234 4.30859 61.3414 4.30859 61.2945 4.28516C61.2477 4.26172 61.1891 4.27344 61.1188 4.32031C61.0016 4.41406 60.9195 4.53125 60.8727 4.67188C60.8492 4.78906 60.7789 4.90625 60.6617 5.02344C60.4273 5.23438 60.2867 5.35156 60.2398 5.375C60.193 5.375 60.1461 5.39844 60.0992 5.44531C60.0523 5.77344 59.9703 6.03125 59.8531 6.21875C59.7359 6.40625 59.5953 6.58203 59.4313 6.74609C59.3609 6.86328 59.3141 7.01562 59.2906 7.20312C59.2672 7.36719 59.2086 7.49609 59.1148 7.58984C58.8336 7.58984 58.5875 7.625 58.3766 7.69531C58.1656 7.76562 58.0367 7.92969 57.9898 8.1875C58.0133 8.30469 58.0484 8.41016 58.0953 8.50391C58.1422 8.57422 58.1656 8.66797 58.1656 8.78516C58.1656 8.87891 58.1422 8.98438 58.0953 9.10156C58.0719 9.19531 58.0367 9.28906 57.9898 9.38281C57.9195 9.57031 57.8258 9.72266 57.7086 9.83984C57.6383 10.0977 57.5328 10.3203 57.3922 10.5078C57.2516 10.6719 57.1227 10.8477 57.0055 11.0352C56.9586 11.2227 56.9469 11.3398 56.9703 11.3867C56.9938 11.4102 57.0055 11.4453 57.0055 11.4922C56.9586 11.6328 56.8883 11.75 56.7945 11.8438C56.7242 11.9375 56.6656 12.043 56.6188 12.1602C56.15 12.7227 55.9156 13.332 55.9156 13.9883C55.7984 14.1758 55.6344 14.3164 55.4234 14.4102C55.2125 14.5039 55.0484 14.6445 54.9313 14.832L55.1422 15.5703C55.3063 15.6875 55.3414 15.793 55.2477 15.8867C55.1539 15.9805 55.0836 16.1211 55.0367 16.3086C55.3414 16.3555 55.4703 16.5664 55.4234 16.9414C55.5641 16.9648 55.6461 16.9297 55.6695 16.8359C55.7164 16.7422 55.8219 16.707 55.9859 16.7305C56.0328 16.8477 56.0211 16.9531 55.9508 17.0469C55.9039 17.1406 55.8805 17.2461 55.8805 17.3633C55.857 17.5508 55.8453 17.6797 55.8453 17.75C55.8453 17.7969 55.8219 17.832 55.775 17.8555C56.0328 18.0898 56.1969 18.2422 56.2672 18.3125C56.3375 18.3828 56.3961 18.4648 56.443 18.5586C56.3961 18.7461 56.4078 18.8984 56.4781 19.0156C56.5484 19.1094 56.6305 19.2148 56.7242 19.332C56.818 19.6367 56.9117 19.8242 57.0055 19.8945C57.0992 19.9414 57.1344 20.0469 57.1109 20.2109C57.1578 20.2578 57.2164 20.3047 57.2867 20.3516C57.357 20.375 57.4156 20.4102 57.4625 20.457C57.5328 20.6445 57.5094 20.7969 57.3922 20.9141C57.275 21.0312 57.2281 21.1719 57.2516 21.3359C57.275 21.4531 57.3688 21.5 57.5328 21.4766C57.6969 21.4531 57.8141 21.4883 57.8844 21.582C57.9313 21.793 57.9898 21.9102 58.0602 21.9336C58.1305 21.957 58.1891 21.9922 58.2359 22.0391C58.3063 22.2969 58.3766 22.5195 58.4469 22.707C58.5406 22.8945 58.5992 23.1172 58.6227 23.375C58.6695 23.4688 58.7281 23.5625 58.7984 23.6562C58.8922 23.75 58.9625 23.8555 59.0094 23.9727C59.15 24.2773 59.2086 24.5 59.1852 24.6406C59.1852 24.7578 59.2086 24.8633 59.2555 24.957C59.4664 25.0039 59.6188 25.1562 59.7125 25.4141C59.8297 25.6484 59.818 25.8945 59.6773 26.1523C59.7945 26.1758 59.9117 26.1875 60.0289 26.1875C60.1461 26.1875 60.2516 26.2109 60.3453 26.2578C60.3922 26.3281 60.4391 26.3984 60.4859 26.4688C60.5328 26.5391 60.5914 26.5977 60.6617 26.6445C60.7789 26.8086 60.8844 26.9023 60.9781 26.9258C61.0719 26.9492 61.1305 27.0078 61.1539 27.1016C61.1773 27.2188 61.1773 27.3242 61.1539 27.418C61.1539 27.4883 61.1539 27.582 61.1539 27.6992C61.2008 27.7461 61.2594 27.793 61.3297 27.8398C61.4 27.8633 61.4352 27.9336 61.4352 28.0508C61.5523 28.0508 61.6461 28.0859 61.7164 28.1562C61.7867 28.2031 61.857 28.2617 61.9273 28.332C62.0445 28.2852 62.1617 28.2617 62.2789 28.2617C62.4195 28.2383 62.5133 28.2852 62.5602 28.4023C62.6539 28.6836 62.7477 28.8477 62.8414 28.8945C62.9352 28.9414 63.0289 28.9883 63.1227 29.0352L63.2633 29.3516ZM69.4578 23.7969C69.4578 23.9844 69.3875 24.1133 69.2469 24.1836C69.2938 24.3945 69.3055 24.5117 69.282 24.5352C69.2586 24.5352 69.2352 24.5469 69.2117 24.5703C69.2117 24.7812 69.1766 24.9688 69.1063 25.1328C69.2703 25.3906 69.3406 25.5312 69.3172 25.5547C69.2938 25.5781 69.2703 25.6133 69.2469 25.6602C69.3406 25.9648 69.282 26.1523 69.0711 26.2227C69.0945 26.3398 69.1297 26.4453 69.1766 26.5391C69.2234 26.6328 69.2703 26.7383 69.3172 26.8555C69.2703 27.0195 69.2352 27.1602 69.2117 27.2773C69.2117 27.3711 69.2 27.4414 69.1766 27.4883C69.2 27.6055 69.2469 27.7227 69.3172 27.8398C69.4109 27.9336 69.4227 28.0625 69.3523 28.2266C69.1414 28.3906 69.0477 28.4844 69.0711 28.5078C69.0945 28.5312 69.118 28.5664 69.1414 28.6133C69.1414 28.7305 69.1531 28.8359 69.1766 28.9297C69.2234 29 69.2469 29.082 69.2469 29.1758C69.1063 29.3164 69.0125 29.4102 68.9656 29.457C68.9188 29.5273 68.8484 29.5742 68.7547 29.5977C68.5906 29.3867 68.4734 29.3047 68.4031 29.3516C68.3328 29.3984 68.2742 29.3867 68.2273 29.3164C68.2039 29.1758 68.2391 29.082 68.3328 29.0352C68.4266 29.0117 68.4852 28.9414 68.5086 28.8242C68.3914 28.8477 68.3094 28.8828 68.2625 28.9297C68.2156 28.9766 68.157 29.0234 68.0867 29.0703C68.0164 29.1172 67.9578 29.1641 67.9109 29.2109C67.8641 29.2812 67.8055 29.3398 67.7352 29.3867C67.6648 29.3633 67.6063 29.3164 67.5594 29.2461C67.5125 29.1992 67.4656 29.1523 67.4188 29.1055C67.4188 29.0352 67.4422 28.9062 67.4891 28.7188C67.3719 28.7422 67.3016 28.7891 67.2781 28.8594C67.2781 28.9297 67.2781 29.0117 67.2781 29.1055C67.1609 29.1992 66.9734 29.2344 66.7156 29.2109C66.4578 29.2109 66.3172 29.1055 66.2938 28.8945C66.2 28.9414 66.0594 28.9648 65.8719 28.9648C65.7078 29.082 65.5672 29.1406 65.45 29.1406C65.2625 29.0938 65.0984 29.0938 64.9578 29.1406C64.6766 29.0234 64.4891 29.0117 64.3953 29.1055C64.325 29.2227 64.2313 29.2461 64.1141 29.1758C63.8328 29.1055 63.6688 29.082 63.6219 29.1055C63.575 29.1289 63.5164 29.1406 63.4461 29.1406C63.3992 29.1406 63.3406 29.1289 63.2703 29.1055C63.2 29.1055 63.1297 29.1055 63.0594 29.1055C62.9891 29.0586 62.9305 29.0117 62.8836 28.9648C62.8367 28.918 62.8016 28.8359 62.7781 28.7188C62.9188 28.5781 63.0008 28.5195 63.0242 28.543C63.0711 28.5664 63.118 28.5898 63.1648 28.6133C63.3523 28.3555 63.4695 28.1914 63.5164 28.1211C63.5867 28.0273 63.6453 27.9336 63.6922 27.8398C63.7859 27.6289 63.8563 27.5469 63.9031 27.5938C63.95 27.6172 63.9969 27.6172 64.0438 27.5938C64.1375 27.3125 64.1609 27.1367 64.1141 27.0664C64.0672 26.9961 64.0438 26.9023 64.0438 26.7852C64.1141 26.668 64.1961 26.6445 64.2898 26.7148C64.3836 26.7852 64.4656 26.8438 64.5359 26.8906C64.5828 26.6562 64.6297 26.5508 64.6766 26.5742C64.7234 26.5742 64.7586 26.5508 64.782 26.5039C64.8055 26.457 64.8055 26.3984 64.782 26.3281C64.782 26.2344 64.7938 26.1523 64.8172 26.082C64.7703 26.0117 64.7234 25.9531 64.6766 25.9062C64.6297 25.8594 64.6063 25.7773 64.6063 25.6602C64.6766 25.5664 64.7469 25.4844 64.8172 25.4141C64.9109 25.3438 64.9695 25.2266 64.993 25.0625C64.9695 24.7578 64.9227 24.5938 64.8523 24.5703C64.8055 24.5469 64.782 24.4766 64.782 24.3594C64.8992 24.125 64.8992 23.9375 64.782 23.7969C64.6648 23.6328 64.6648 23.4453 64.782 23.2344C64.7586 22.8828 64.7938 22.6367 64.8875 22.4961C64.8172 22.3086 64.782 22.2031 64.782 22.1797C64.782 22.1328 64.7938 22.0859 64.8172 22.0391C64.7469 21.8047 64.7234 21.6523 64.7469 21.582C64.7703 21.4883 64.782 21.3945 64.782 21.3008C64.7117 21.0664 64.6883 20.9375 64.7117 20.9141C64.7586 20.8672 64.7938 20.8203 64.8172 20.7734C64.8172 20.6328 64.8055 20.4922 64.782 20.3516C64.7586 20.2109 64.782 20.1172 64.8523 20.0703C64.8055 19.9531 64.782 19.8359 64.782 19.7188C64.8055 19.5781 64.8172 19.4141 64.8172 19.2266C64.7 18.9688 64.6531 18.793 64.6766 18.6992C64.7234 18.582 64.7703 18.4648 64.8172 18.3477C64.7703 18.3008 64.7469 18.2305 64.7469 18.1367C64.7469 18.0195 64.782 17.9375 64.8523 17.8906C64.8055 17.8438 64.7469 17.7969 64.6766 17.75C64.6297 17.6797 64.5945 17.6094 64.5711 17.5391C64.618 17.375 64.7 17.2578 64.8172 17.1875C64.9344 17.0938 65.0164 16.9531 65.0633 16.7656C64.9227 16.5078 64.8523 16.3555 64.8523 16.3086C64.8758 16.2617 64.8875 16.2031 64.8875 16.1328C64.8172 16.0391 64.7703 15.9219 64.7469 15.7812C64.7469 15.6406 64.7938 15.5234 64.8875 15.4297C64.9109 15.2656 64.9344 15.1602 64.9578 15.1133C64.9813 15.0664 65.0164 15.0078 65.0633 14.9375C64.9695 14.7969 64.8641 14.6797 64.7469 14.5859C64.6531 14.4922 64.6063 14.3516 64.6063 14.1641C64.6766 14.0234 64.7234 13.9297 64.7469 13.8828C64.7938 13.8359 64.8406 13.7891 64.8875 13.7422C64.8875 13.2734 64.8523 12.8633 64.782 12.5117C64.7117 12.1602 64.6883 11.8203 64.7117 11.4922C64.8055 11.3516 64.8758 11.1992 64.9227 11.0352C64.993 10.8711 65.0867 10.7305 65.2039 10.6133C65.157 10.4961 65.0984 10.4141 65.0281 10.3672C64.9578 10.2969 64.8992 10.2148 64.8523 10.1211C64.8289 9.86328 64.8523 9.59375 64.9227 9.3125C64.9227 9.10156 64.9578 8.99609 65.0281 8.99609C65.0984 8.97266 65.1453 8.92578 65.1688 8.85547C65.1219 8.71484 65.0281 8.62109 64.8875 8.57422C64.7703 8.52734 64.6883 8.44531 64.6414 8.32812C64.6648 8.23438 64.7 8.14062 64.7469 8.04688C64.7938 7.95312 64.8055 7.85938 64.782 7.76562C64.8289 7.48438 64.8406 7.32031 64.8172 7.27344C64.7938 7.20312 64.782 7.14453 64.782 7.09766C64.782 6.91016 64.7703 6.79297 64.7469 6.74609C64.7469 6.67578 64.7234 6.61719 64.6766 6.57031C64.7 6.45312 64.7352 6.37109 64.782 6.32422C64.8523 6.27734 64.9109 6.21875 64.9578 6.14844C64.8875 6.07812 64.8055 5.98438 64.7117 5.86719C64.618 5.72656 64.618 5.57422 64.7117 5.41016C64.6648 5.36328 64.6063 5.32812 64.5359 5.30469C64.4891 5.25781 64.4539 5.19922 64.4305 5.12891C64.4539 4.91797 64.4305 4.78906 64.3602 4.74219C64.3133 4.67188 64.2664 4.61328 64.2195 4.56641C64.0086 4.54297 63.8797 4.48437 63.8328 4.39062C63.6219 4.17969 63.4578 4.09766 63.3406 4.14453C63.2234 4.16797 63.1414 4.12109 63.0945 4.00391C62.9539 3.76953 62.8719 3.64062 62.8484 3.61719C62.8484 3.59375 62.8484 3.55859 62.8484 3.51172C62.9656 3.44141 63.118 3.40625 63.3055 3.40625C63.5164 3.38281 63.6922 3.39453 63.8328 3.44141C63.9031 3.55859 64.0086 3.62891 64.1492 3.65234C64.3133 3.67578 64.4539 3.72266 64.5711 3.79297C64.8992 3.76953 65.1102 3.71094 65.2039 3.61719C65.2977 3.52344 65.4383 3.48828 65.6258 3.51172C65.6961 3.46484 65.7781 3.44141 65.8719 3.44141C65.9891 3.41797 66.0828 3.38281 66.1531 3.33594C66.4578 3.38281 66.6453 3.42969 66.7156 3.47656C66.7859 3.52344 66.8563 3.57031 66.9266 3.61719C67.3016 3.64062 67.5945 3.62891 67.8055 3.58203C68.0164 3.51172 68.2156 3.42969 68.4031 3.33594C68.7078 3.3125 68.907 3.37109 69.0008 3.51172C69.0242 3.62891 69.0711 3.6875 69.1414 3.6875C69.2117 3.6875 69.2586 3.72266 69.282 3.79297C69.282 3.93359 69.2117 4.01563 69.0711 4.03906C68.9539 4.03906 68.8602 4.08594 68.7898 4.17969C68.9539 4.4375 69.0242 4.58984 69.0008 4.63672C68.9773 4.66016 68.9656 4.69531 68.9656 4.74219C69.0359 4.92969 69.0242 5.07031 68.9305 5.16406C68.9773 5.23438 69.0125 5.30469 69.0359 5.375C69.0828 5.42188 69.118 5.49219 69.1414 5.58594C69.118 5.77344 69.0477 5.92578 68.9305 6.04297C69.0242 6.30078 69.0828 6.45312 69.1063 6.5C69.1531 6.52344 69.1883 6.57031 69.2117 6.64062C69.1883 6.78125 69.1297 6.88672 69.0359 6.95703C68.9656 7.02734 68.8953 7.10938 68.825 7.20312C68.9188 7.4375 68.9773 7.58984 69.0008 7.66016C69.0477 7.70703 69.0945 7.76562 69.1414 7.83594C69.1414 8.04688 69.0828 8.21094 68.9656 8.32812C68.8719 8.44531 68.8016 8.59766 68.7547 8.78516C68.8953 9.06641 69.0008 9.23047 69.0711 9.27734C69.1648 9.30078 69.2234 9.35938 69.2469 9.45312C69.1766 9.64062 69.1531 9.74609 69.1766 9.76953C69.2 9.76953 69.2 9.79297 69.1766 9.83984C69.1531 9.93359 69.118 10.0039 69.0711 10.0508C69.0242 10.0977 69.0125 10.1797 69.0359 10.2969C69.0594 10.4141 69.0945 10.4961 69.1414 10.543C69.2117 10.5898 69.2586 10.6719 69.282 10.7891C69.2586 10.9062 69.2117 11 69.1414 11.0703C69.0945 11.1172 69.0477 11.1758 69.0008 11.2461C69.1648 11.6211 69.2703 11.8672 69.3172 11.9844C69.2703 12.2188 69.2234 12.4297 69.1766 12.6172C69.1531 12.8047 69.1414 13.0039 69.1414 13.2148C69.0945 13.5664 69.0828 13.8008 69.1063 13.918C69.1297 13.9883 69.1648 14.0469 69.2117 14.0938C69.282 14.1172 69.3289 14.1758 69.3523 14.2695C69.3055 14.5508 69.2117 14.7734 69.0711 14.9375C68.9539 15.1016 68.8133 15.2539 68.6492 15.3945C68.6727 15.4414 68.7313 15.4531 68.825 15.4297C68.9188 15.4062 68.9891 15.418 69.0359 15.4648C69.0594 15.582 69.0594 15.6641 69.0359 15.7109C69.0125 15.7578 68.9891 15.8047 68.9656 15.8516C69.1766 16.0156 69.2586 16.1445 69.2117 16.2383C69.1883 16.332 69.1531 16.4141 69.1063 16.4844C69.2469 16.8594 69.3055 17.1523 69.282 17.3633C69.2586 17.5508 69.2 17.7383 69.1063 17.9258C69.1297 18.2773 69.1531 18.5586 69.1766 18.7695C69.1297 18.8867 69.0711 18.9805 69.0008 19.0508C68.9539 19.1211 68.907 19.2148 68.8602 19.332C69.0242 19.5898 69.1297 19.7422 69.1766 19.7891C69.1297 19.8828 69.1297 19.9531 69.1766 20C69.2469 20.0469 69.282 20.1055 69.282 20.1758C69.3055 20.293 69.282 20.375 69.2117 20.4219C69.1414 20.4688 69.0594 20.5273 68.9656 20.5977C69.0359 20.9492 69.0828 21.2305 69.1063 21.4414C69.1531 21.6289 69.1297 21.8164 69.0359 22.0039C69.1063 22.3789 69.1063 22.6484 69.0359 22.8125C69.0359 22.9297 69.0359 23.0352 69.0359 23.1289C69.0594 23.1992 69.0477 23.2812 69.0008 23.375C69.0477 23.4688 69.118 23.5391 69.2117 23.5859C69.3289 23.6094 69.4109 23.6797 69.4578 23.7969Z" fill="white"/>
  <path d="M72.207 3.89844C72.3711 3.82812 72.5352 3.83984 72.6992 3.93359C72.8633 4.00391 73.0391 4.03906 73.2266 4.03906C73.4844 4.03906 73.7188 4.00391 73.9297 3.93359C74.1641 3.83984 74.3984 3.76953 74.6328 3.72266C74.9141 3.76953 75.0781 3.78125 75.125 3.75781C75.1719 3.71094 75.2305 3.6875 75.3008 3.6875C75.418 3.6875 75.5117 3.71094 75.582 3.75781C75.6523 3.80469 75.7578 3.81641 75.8984 3.79297C76.0859 3.60547 76.3203 3.46484 76.6016 3.37109C76.9062 3.25391 77.2109 3.13672 77.5156 3.01953C77.5859 3.01953 77.6562 3.01953 77.7266 3.01953C77.7969 3.01953 77.8555 3.04297 77.9023 3.08984C77.8789 3.30078 77.9023 3.40625 77.9727 3.40625C78.0664 3.40625 78.1367 3.42969 78.1836 3.47656C78.4414 3.66406 78.6758 3.73438 78.8867 3.6875C79.1211 3.64062 79.2969 3.66406 79.4141 3.75781C79.7188 3.66406 80.082 3.61719 80.5039 3.61719C80.8086 3.66406 81.0078 3.67578 81.1016 3.65234C81.2188 3.62891 81.3359 3.59375 81.4531 3.54688C81.5234 3.52344 81.5703 3.48828 81.5938 3.44141C81.6172 3.37109 81.6875 3.34766 81.8047 3.37109C81.875 3.41797 81.8984 3.5 81.875 3.61719C81.8516 3.71094 81.875 3.78125 81.9453 3.82812C82.1328 3.82812 82.2852 3.79297 82.4023 3.72266C82.5195 3.65234 82.6719 3.60547 82.8594 3.58203C83.0234 3.65234 83.2109 3.66406 83.4219 3.61719C83.4922 3.61719 83.5508 3.59375 83.5977 3.54688C83.668 3.47656 83.7266 3.44141 83.7734 3.44141C84.0781 3.53516 84.2539 3.55859 84.3008 3.51172C84.3477 3.46484 84.3945 3.41797 84.4414 3.37109C84.7695 3.20703 84.9922 3.10156 85.1094 3.05469C85.25 2.98438 85.4023 2.92578 85.5664 2.87891C85.6836 2.78516 85.7773 2.70312 85.8477 2.63281C85.918 2.5625 86.0234 2.51562 86.1641 2.49219C86.4453 2.60938 86.6094 2.62109 86.6562 2.52734C86.7031 2.41016 86.7734 2.31641 86.8672 2.24609C87.1719 2.24609 87.3359 2.23437 87.3594 2.21094C87.4062 2.16406 87.4648 2.12891 87.5352 2.10547C87.8164 1.84766 88.0039 1.67187 88.0977 1.57812C88.1914 1.46094 88.2969 1.34375 88.4141 1.22656C88.6484 1.4375 88.7891 1.50781 88.8359 1.4375C88.8828 1.34375 88.918 1.26172 88.9414 1.19141C88.9883 1.12109 89.0469 1.0625 89.1172 1.01562C89.1875 0.945312 89.293 0.921875 89.4336 0.945312C89.6445 0.757812 89.7617 0.675781 89.7852 0.699219C89.8086 0.699219 89.8438 0.6875 89.8906 0.664062C90.0078 0.664062 90.0664 0.628906 90.0664 0.558594C90.0898 0.488281 90.125 0.429688 90.1719 0.382812C90.2656 0.359375 90.3359 0.324219 90.3828 0.277344C90.4297 0.230469 90.5 0.195312 90.5938 0.171875C90.6641 0.40625 90.6523 0.570313 90.5586 0.664062C90.4648 0.734375 90.4062 0.863281 90.3828 1.05078C90.3125 1.12109 90.2773 1.25 90.2773 1.4375C90.1836 1.55469 90.125 1.68359 90.1016 1.82422C90.1016 1.96484 90.0781 2.10547 90.0312 2.24609L89.4688 2.80859C89.4219 2.94922 89.3633 3.07812 89.293 3.19531C89.2227 3.3125 89.1758 3.46484 89.1523 3.65234L88.625 4.74219C88.5078 4.85938 88.3789 4.95312 88.2383 5.02344C88.0977 5.09375 87.9922 5.21094 87.9219 5.375C87.9453 5.58594 87.9688 5.77344 87.9922 5.9375C88.0156 6.10156 87.9922 6.27734 87.9219 6.46484C88.0156 6.93359 87.9453 7.21484 87.7109 7.30859C87.5938 7.26172 87.4883 7.26172 87.3945 7.30859C87.3242 7.33203 87.2305 7.35547 87.1133 7.37891C86.9961 7.28516 86.8672 7.26172 86.7266 7.30859C86.6094 7.33203 86.4922 7.32031 86.375 7.27344C86.2344 7.32031 86.082 7.34375 85.918 7.34375C85.7539 7.34375 85.6133 7.28516 85.4961 7.16797C85.3086 7.19141 85.1562 7.23828 85.0391 7.30859C84.9219 7.37891 84.7695 7.40234 84.582 7.37891C84.3008 7.19141 84.0547 7.13281 83.8438 7.20312C83.8438 7.17969 83.7969 7.15625 83.7031 7.13281C83.6328 7.08594 83.5391 7.0625 83.4219 7.0625C83.3281 7.03906 83.2344 7.01562 83.1406 6.99219C83.0469 6.96875 83 6.94531 83 6.92188C82.8828 6.875 82.7422 6.86328 82.5781 6.88672C82.4375 6.88672 82.3086 6.91016 82.1914 6.95703C82.0977 6.95703 81.9922 6.95703 81.875 6.95703C81.7812 6.93359 81.7109 6.94531 81.6641 6.99219C81.5 6.92188 81.3125 6.91016 81.1016 6.95703C80.9141 6.98047 80.7383 7.01562 80.5742 7.0625C80.4805 7.15625 80.3984 7.19141 80.3281 7.16797C80.2578 7.14453 80.1875 7.14453 80.1172 7.16797C79.9766 7.07422 79.8594 7.00391 79.7656 6.95703C79.6953 6.91016 79.6016 6.91016 79.4844 6.95703C79.2969 7.07422 79.1562 7.20312 79.0625 7.34375L79.168 7.94141C79.2383 7.96484 79.3438 7.95312 79.4844 7.90625C79.625 7.85938 79.7188 7.89453 79.7656 8.01172C79.7188 8.17578 79.6367 8.31641 79.5195 8.43359C79.4023 8.52734 79.332 8.67969 79.3086 8.89062C79.4258 9.21875 79.4727 9.44141 79.4492 9.55859C79.4258 9.67578 79.4141 9.80469 79.4141 9.94531L79.5547 10.3672C79.4375 10.6016 79.3789 10.8477 79.3789 11.1055C79.4023 11.3398 79.4023 11.6094 79.3789 11.9141C79.4492 12.1719 79.4492 12.3008 79.3789 12.3008C79.332 12.3008 79.2852 12.3125 79.2383 12.3359C79.2383 12.5234 79.2969 12.6523 79.4141 12.7227C79.5312 12.793 79.6016 12.9102 79.625 13.0742C79.6016 13.1914 79.5664 13.2852 79.5195 13.3555C79.4727 13.4023 79.4258 13.4727 79.3789 13.5664C79.5898 13.7305 79.7422 13.8125 79.8359 13.8125C79.9531 13.8125 80.0586 13.8359 80.1523 13.8828C80.2461 13.9062 80.3398 13.8828 80.4336 13.8125C80.7383 13.8125 80.9492 13.7891 81.0664 13.7422C81.2773 13.8125 81.4648 13.9414 81.6289 14.1289C81.9336 14.0586 82.1094 14.0352 82.1562 14.0586C82.2266 14.0586 82.2969 14.0703 82.3672 14.0938C82.5547 14.0469 82.6953 13.9648 82.7891 13.8477C82.9062 13.7305 83.0352 13.625 83.1758 13.5312C83.4336 13.5312 83.6562 13.4609 83.8438 13.3203C84.125 13.25 84.3242 13.1328 84.4414 12.9688C84.582 12.7812 84.7344 12.6055 84.8984 12.4414C84.9453 12.2773 84.9922 12.1953 85.0391 12.1953C85.0859 12.1719 85.1094 12.1367 85.1094 12.0898C85.1094 11.832 85.1562 11.6445 85.25 11.5273C85.3672 11.3867 85.5078 11.2578 85.6719 11.1406C85.7188 11.0703 85.7539 10.9883 85.7773 10.8945C85.8008 10.8008 85.8359 10.7305 85.8828 10.6836C86.0938 10.8945 86.1758 11.0234 86.1289 11.0703C86.1758 11.1641 86.2227 11.2344 86.2695 11.2812C86.3398 11.3281 86.3633 11.4102 86.3398 11.5273C86.3164 11.6445 86.2578 11.7383 86.1641 11.8086C86.0703 11.8789 86 11.9375 85.9531 11.9844L85.6367 12.5117C85.6367 12.6055 85.625 12.6875 85.6016 12.7578C85.5781 12.8047 85.5664 12.875 85.5664 12.9688C85.4727 13.1797 85.3906 13.4023 85.3203 13.6367C85.2734 13.8711 85.2383 14.1172 85.2148 14.375C85.168 14.4922 85.1328 14.6445 85.1094 14.832C85.0859 14.9961 85.0742 15.1484 85.0742 15.2891C85.0039 15.4531 84.9102 15.5938 84.793 15.7109C84.7461 15.8281 84.6992 15.957 84.6523 16.0977C84.6289 16.2148 84.6172 16.3555 84.6172 16.5195C84.5469 16.6367 84.5 16.7656 84.4766 16.9062C84.5234 17.1406 84.4883 17.2812 84.3711 17.3281C84.1602 17.5391 84.043 17.6211 84.0195 17.5742C83.9961 17.5039 83.9609 17.4453 83.9141 17.3984C83.6094 17.5391 83.4336 17.5977 83.3867 17.5742C83.3398 17.5273 83.293 17.4922 83.2461 17.4688C82.8945 17.4219 82.6367 17.4219 82.4727 17.4688C82.332 17.4922 82.1797 17.5156 82.0156 17.5391C81.6406 17.4688 81.3711 17.4688 81.207 17.5391C81.043 17.5859 80.8906 17.5508 80.75 17.4336C80.6094 17.4805 80.457 17.5273 80.293 17.5742C80.1289 17.5977 79.9883 17.5625 79.8711 17.4688C79.707 17.7734 79.5781 17.9961 79.4844 18.1367C79.4141 18.2773 79.3789 18.4062 79.3789 18.5234C79.4023 18.6406 79.4375 18.7344 79.4844 18.8047C79.5547 18.8516 79.5664 18.9336 79.5195 19.0508C79.6602 19.3789 79.707 19.5898 79.6602 19.6836C79.6133 19.7539 79.5664 19.8359 79.5195 19.9297C79.6602 20.1641 79.707 20.3047 79.6602 20.3516C79.6367 20.3984 79.6016 20.4453 79.5547 20.4922L79.3438 20.9492C79.3672 21.043 79.3672 21.1133 79.3438 21.1602C79.3438 21.207 79.332 21.2773 79.3086 21.3711C79.3555 21.4883 79.3672 21.582 79.3438 21.6523C79.3438 21.7227 79.332 21.8164 79.3086 21.9336C79.3555 22.332 79.4023 22.6602 79.4492 22.918C79.4961 23.1523 79.543 23.375 79.5898 23.5859C79.5898 23.7734 79.543 23.9258 79.4492 24.043C79.3789 24.1367 79.3438 24.2773 79.3438 24.4648C79.5781 24.6289 79.6719 24.7227 79.625 24.7461C79.5781 24.7695 79.543 24.8047 79.5195 24.8516C79.5195 25.1797 79.4609 25.4609 79.3438 25.6953C79.2266 25.9297 79.1914 26.1992 79.2383 26.5039C79.332 26.7852 79.3672 26.9844 79.3438 27.1016C79.3438 27.2188 79.3203 27.3359 79.2734 27.4531C79.25 27.8047 79.2266 28.0977 79.2031 28.332C79.2031 28.543 79.25 28.707 79.3438 28.8242C79.5078 29.1289 79.5078 29.293 79.3438 29.3164C79.2031 29.3398 79.0742 29.3867 78.957 29.457C78.8398 29.4102 78.7109 29.3633 78.5703 29.3164C78.4297 29.293 78.2891 29.3047 78.1484 29.3516C77.8438 29.3047 77.5859 29.3164 77.375 29.3867C77.1875 29.457 77.082 29.3633 77.0586 29.1055C76.9414 29.1523 76.8477 29.1992 76.7773 29.2461C76.7305 29.293 76.6484 29.3398 76.5312 29.3867C76.1562 29.4336 75.8398 29.457 75.582 29.457C75.3477 29.457 75.1836 29.3867 75.0898 29.2461C74.9727 29.293 74.8672 29.3164 74.7734 29.3164C74.6797 29.3398 74.5742 29.375 74.457 29.4219C74.1758 29.4453 74.0117 29.4219 73.9648 29.3516C73.9414 29.2812 73.9062 29.2227 73.8594 29.1758C73.7422 29.1992 73.625 29.2109 73.5078 29.2109C73.4141 29.2344 73.3438 29.2109 73.2969 29.1406C73.2266 29.1641 73.1562 29.1875 73.0859 29.2109C73.0391 29.2578 72.9688 29.2695 72.875 29.2461C72.6875 29.2227 72.582 29.2344 72.5586 29.2812C72.5352 29.3281 72.4883 29.3516 72.418 29.3516C72.3242 29.3281 72.2305 29.3281 72.1367 29.3516C72.0195 29.375 71.9141 29.3867 71.8203 29.3867C71.7266 29.4102 71.6445 29.4102 71.5742 29.3867C71.5039 29.3867 71.457 29.3281 71.4336 29.2109C71.5039 29.0938 71.6328 29.0586 71.8203 29.1055C71.9141 29.082 71.9961 29.0469 72.0664 29C72.1133 28.9766 72.1719 28.9531 72.2422 28.9297C72.2891 28.8594 72.3359 28.7891 72.3828 28.7188C72.4297 28.625 72.4883 28.5547 72.5586 28.5078C72.7227 28.4844 72.8867 28.4609 73.0508 28.4375C73.2148 28.4141 73.3672 28.4023 73.5078 28.4023C73.6016 28.3086 73.6719 28.1797 73.7188 28.0156C73.8594 27.9922 74 27.9102 74.1406 27.7695C74.3516 27.6055 74.4336 27.5117 74.3867 27.4883C74.3398 27.4648 74.3398 27.4297 74.3867 27.3828L74.5977 26.9609C74.5742 26.75 74.6094 26.6211 74.7031 26.5742C74.7969 26.457 74.8906 26.3633 74.9844 26.293C75.0781 26.1992 75.1602 26.082 75.2305 25.9414C75.1367 25.7305 75.1016 25.6133 75.125 25.5898C75.1484 25.543 75.1602 25.4961 75.1602 25.4492C75.0664 25.2148 75.0781 25.0156 75.1953 24.8516C75.0781 24.5469 75.0547 24.3594 75.125 24.2891C75.2188 24.1953 75.2773 24.0664 75.3008 23.9023C75.3008 23.7852 75.2773 23.6797 75.2305 23.5859C75.1836 23.4922 75.1367 23.3984 75.0898 23.3047C75.0664 23.2109 75.043 23.1289 75.0195 23.0586C75.0195 22.9883 75.0547 22.9062 75.125 22.8125C75.1719 22.4141 75.1953 22.0977 75.1953 21.8633C75.2188 21.6055 75.2422 21.3477 75.2656 21.0898C75.2422 20.832 75.2656 20.668 75.3359 20.5977C75.4062 20.5039 75.4648 20.3984 75.5117 20.2812C75.3711 20.2578 75.207 20.2461 75.0195 20.2461C74.8555 20.2461 74.7617 20.1875 74.7383 20.0703C74.7617 19.9297 74.8086 19.8242 74.8789 19.7539C74.9727 19.6602 75.043 19.5547 75.0898 19.4375C75.0898 19.3203 75.0781 19.2266 75.0547 19.1562C75.0547 19.0625 75.0547 18.957 75.0547 18.8398C75.1016 18.6289 75.1719 18.4766 75.2656 18.3828C75.2656 18.2422 75.2891 18.1016 75.3359 17.9609C75.3828 17.7969 75.3828 17.6211 75.3359 17.4336C75.2422 17.082 75.2305 16.8477 75.3008 16.7305C75.3711 16.6133 75.4414 16.4961 75.5117 16.3789L75.4062 15.9219C75.4062 15.7344 75.3711 15.6055 75.3008 15.5352C75.2305 15.4414 75.1836 15.3125 75.1602 15.1484C75.2305 14.9844 75.2305 14.8086 75.1602 14.6211C75.1133 14.4336 75.1016 14.2461 75.125 14.0586C75.125 13.9883 75.1367 13.918 75.1602 13.8477C75.207 13.7773 75.2422 13.6953 75.2656 13.6016C75.2891 13.4844 75.3008 13.3555 75.3008 13.2148C75.3008 13.0508 75.3008 12.9102 75.3008 12.793C75.3008 12.5117 75.3125 12.3594 75.3359 12.3359C75.3594 12.2891 75.3828 12.2305 75.4062 12.1602C75.4062 11.9258 75.3477 11.7617 75.2305 11.668C75.1367 11.5508 75.0547 11.4102 74.9844 11.2461C75.0781 11.0352 75.1133 10.9062 75.0898 10.8594C75.0898 10.8125 75.0898 10.7539 75.0898 10.6836C75.1367 10.4961 75.1836 10.3086 75.2305 10.1211C75.2773 9.93359 75.3242 9.74609 75.3711 9.55859C75.3945 9.37109 75.3477 9.21875 75.2305 9.10156C75.1367 8.98438 75.1367 8.83203 75.2305 8.64453C75.1367 8.41016 75.0898 8.26953 75.0898 8.22266C75.1133 8.15234 75.125 8.08203 75.125 8.01172C75.0547 7.56641 74.9844 7.15625 74.9141 6.78125C74.8672 6.71094 74.8086 6.65234 74.7383 6.60547C74.668 6.53516 74.5977 6.47656 74.5273 6.42969C74.3867 6.26562 74.3047 6.07812 74.2812 5.86719C74.0234 5.82031 73.8711 5.82031 73.8242 5.86719C73.8008 5.91406 73.7539 5.94922 73.6836 5.97266C73.543 5.97266 73.4375 5.94922 73.3672 5.90234C73.2969 5.85547 73.2266 5.79688 73.1562 5.72656C72.9688 5.60937 72.8633 5.5625 72.8398 5.58594C72.8164 5.58594 72.8047 5.5625 72.8047 5.51562C72.8047 5.39844 72.8281 5.30469 72.875 5.23438C72.9219 5.16406 72.9336 5.07031 72.9102 4.95312C72.8867 4.85938 72.8516 4.78906 72.8047 4.74219C72.7578 4.69531 72.7227 4.625 72.6992 4.53125C72.6055 4.48437 72.5234 4.46094 72.4531 4.46094C72.3594 4.4375 72.2891 4.40234 72.2422 4.35547L72.207 3.89844ZM106.316 3.01953C106.339 3.20703 106.316 3.32422 106.245 3.37109C106.175 3.39453 106.116 3.42969 106.07 3.47656C105.882 3.57031 105.753 3.65234 105.683 3.72266C105.519 3.76953 105.378 3.82812 105.261 3.89844C105.144 3.96875 105.015 4.02734 104.874 4.07422C104.851 4.30859 104.863 4.44922 104.909 4.49609C104.98 4.51953 105.027 4.57813 105.05 4.67188C105.027 4.78906 104.956 4.87109 104.839 4.91797C104.745 4.94141 104.64 4.96484 104.523 4.98828C104.405 5.03516 104.288 5.07031 104.171 5.09375C104.054 5.09375 103.937 5.11719 103.82 5.16406C103.585 5.30469 103.445 5.375 103.398 5.375C103.327 5.46875 103.257 5.57422 103.187 5.69141C103.14 5.80859 103.07 5.91406 102.976 6.00781C102.999 6.125 102.976 6.24219 102.905 6.35938C102.859 6.47656 102.8 6.58203 102.73 6.67578C102.706 6.98047 102.624 7.17969 102.484 7.27344C102.343 7.36719 102.202 7.44922 102.062 7.51953C101.898 7.98828 101.745 8.35156 101.605 8.60938C101.488 8.84375 101.417 9.10156 101.394 9.38281C101.323 9.57031 101.253 9.74609 101.183 9.91016C101.113 10.0508 101.054 10.2383 101.007 10.4727C100.773 10.6602 100.562 10.8477 100.374 11.0352C100.187 11.2227 100.07 11.4805 100.023 11.8086C100.023 11.9258 100.023 12.043 100.023 12.1602C100.023 12.2773 100.011 12.3945 99.9875 12.5117C99.8469 12.7695 99.7414 13.0391 99.6711 13.3203C99.6477 13.5312 99.6242 13.7422 99.6008 13.9531C99.6008 14.1406 99.5773 14.3281 99.5305 14.5156C99.3195 14.7266 99.1555 14.9727 99.0383 15.2539C98.9211 15.5352 98.8039 15.8047 98.6867 16.0625C98.5461 16.25 98.4758 16.3906 98.4758 16.4844C98.4758 16.5547 98.4758 16.625 98.4758 16.6953C98.4289 16.7891 98.382 16.8945 98.3352 17.0117C98.2883 17.1055 98.2297 17.1875 98.1594 17.2578C98.2766 17.6562 98.2883 17.9141 98.1945 18.0312C98.1008 18.125 98.0539 18.2656 98.0539 18.4531C97.9367 18.6406 97.8547 18.8281 97.8078 19.0156C97.7844 19.1797 97.7258 19.3672 97.632 19.5781C97.6789 19.7656 97.7023 19.9531 97.7023 20.1406C97.7023 20.3047 97.7258 20.4453 97.7727 20.5625C97.7258 20.7266 97.6672 20.8672 97.5969 20.9844C97.6203 21.1719 97.6203 21.3359 97.5969 21.4766C97.5969 21.6172 97.5617 21.7461 97.4914 21.8633C97.5383 22.168 97.5617 22.4375 97.5617 22.6719C97.5617 22.9062 97.5148 23.1523 97.4211 23.4102C97.3742 23.457 97.3273 23.5156 97.2805 23.5859C97.2336 23.6562 97.1867 23.7383 97.1398 23.832C97.2102 23.9727 97.3039 24.1016 97.4211 24.2188C97.4445 24.3359 97.468 24.4297 97.4914 24.5C97.5148 24.5703 97.5266 24.6406 97.5266 24.7109C97.5031 24.8516 97.4445 24.9805 97.3508 25.0977C97.2805 25.1914 97.2219 25.3086 97.175 25.4492C97.2219 25.543 97.2688 25.6133 97.3156 25.6602C97.3859 25.6836 97.4445 25.7305 97.4914 25.8008C97.5383 25.8945 97.5617 26 97.5617 26.1172C97.5617 26.2109 97.5734 26.3164 97.5969 26.4336C97.6203 26.5039 97.6438 26.5742 97.6672 26.6445C97.6906 26.7148 97.7023 26.7969 97.7023 26.8906C97.7258 27.0312 97.7258 27.1719 97.7023 27.3125C97.6789 27.4531 97.6438 27.582 97.5969 27.6992C97.6438 27.8164 97.6789 27.957 97.7023 28.1211C97.7258 28.2852 97.7609 28.4375 97.8078 28.5781L97.9836 29.3516C97.8664 29.3984 97.7609 29.3984 97.6672 29.3516C97.5969 29.3281 97.5266 29.293 97.4563 29.2461C97.3391 29.293 97.2453 29.3398 97.175 29.3867C97.1281 29.457 97.0227 29.4922 96.8586 29.4922C96.7883 29.4453 96.7414 29.3867 96.718 29.3164C96.6945 29.2695 96.6594 29.2109 96.6125 29.1406C96.4719 29.2109 96.3547 29.293 96.2609 29.3867C96.1906 29.4805 96.1086 29.5625 96.0148 29.6328C95.8977 29.6562 95.7922 29.668 95.6984 29.668C95.6047 29.6914 95.4758 29.7031 95.3117 29.7031C95.218 29.6562 95.1477 29.5859 95.1008 29.4922C95.0539 29.4219 94.9836 29.3633 94.8898 29.3164C94.632 29.3398 94.4211 29.3047 94.257 29.2109C94.0695 29.2344 93.9172 29.2812 93.8 29.3516C93.7063 29.4219 93.6008 29.4805 93.4836 29.5273C93.3664 29.5273 93.2844 29.5039 93.2375 29.457C93.1906 29.4102 93.1203 29.375 93.0266 29.3516C92.675 29.2578 92.4641 29.2695 92.3938 29.3867C92.3234 29.5039 92.218 29.5977 92.0773 29.668C91.7961 29.5508 91.6086 29.4805 91.5148 29.457C91.3273 29.293 91.2102 29.2227 91.1633 29.2461C91.1164 29.2695 91.0695 29.293 91.0227 29.3164C90.8117 29.2461 90.6359 29.1992 90.4953 29.1758C90.3547 29.1758 90.2844 29.1172 90.2844 29C90.3547 28.9531 90.4602 28.9297 90.6008 28.9297C90.7414 28.9297 90.8469 28.9062 90.9172 28.8594C91.175 28.6719 91.3156 28.5547 91.3391 28.5078C91.3625 28.4609 91.4328 28.4492 91.55 28.4727C91.9953 28.6367 92.2648 28.6367 92.3586 28.4727C92.4758 28.2852 92.6633 28.1797 92.9211 28.1562C93.0148 28.1094 93.0969 28.0625 93.1672 28.0156C93.2609 27.9453 93.343 27.875 93.4133 27.8047C93.3664 27.6875 93.3664 27.5703 93.4133 27.4531C93.4602 27.3125 93.4602 27.1836 93.4133 27.0664C93.2023 26.9492 93.1203 26.8672 93.1672 26.8203C93.2375 26.7734 93.2844 26.7148 93.3078 26.6445C93.2609 26.3867 93.2727 26.1992 93.343 26.082C93.4367 25.9414 93.507 25.7891 93.5539 25.625C93.343 25.4375 93.2375 25.2969 93.2375 25.2031C93.2609 25.0859 93.2727 24.9805 93.2727 24.8867C93.132 24.8867 93.0148 24.8984 92.9211 24.9219C92.8508 24.9453 92.7922 24.9336 92.7453 24.8867C92.9094 24.7461 93.05 24.6758 93.1672 24.6758C93.4016 24.5352 93.5422 24.4414 93.5891 24.3945C93.6594 24.3477 93.7063 24.2656 93.7297 24.1484C93.6828 24.0781 93.6008 24.0312 93.4836 24.0078C93.3664 23.9844 93.2844 23.9375 93.2375 23.8672C93.2375 23.6562 93.2492 23.4805 93.2727 23.3398C93.2961 23.1992 93.3078 23.0352 93.3078 22.8477C93.2141 22.6133 93.1906 22.4375 93.2375 22.3203C93.1672 21.8047 93.1789 21.4297 93.2727 21.1953C93.3664 20.9609 93.4719 20.7148 93.5891 20.457C93.5422 20.2227 93.4602 20.0938 93.343 20.0703C93.2492 20.0469 93.2023 19.9766 93.2023 19.8594C93.2492 19.7422 93.3078 19.6602 93.3781 19.6133C93.4719 19.543 93.5422 19.4609 93.5891 19.3672C93.5891 19.25 93.5539 19.1797 93.4836 19.1562C93.4367 19.1328 93.4367 19.0742 93.4836 18.9805C93.4133 18.6523 93.3547 18.4648 93.3078 18.418C93.2844 18.3711 93.2492 18.3242 93.2023 18.2773C93.1789 18.1367 93.1438 18.0195 93.0969 17.9258C93.05 17.8086 93.0148 17.668 92.9914 17.5039C92.6398 17.457 92.4172 17.3164 92.3234 17.082C92.3234 16.9648 92.3117 16.8477 92.2883 16.7305C92.2648 16.6133 92.2297 16.4961 92.1828 16.3789C92.1359 16.2383 92.0305 16.1094 91.8664 15.9922C91.8664 15.8984 91.8664 15.8047 91.8664 15.7109C91.8664 15.6172 91.8898 15.5234 91.9367 15.4297L91.7258 14.8672C91.6555 14.75 91.6203 14.6328 91.6203 14.5156C91.6438 14.375 91.6438 14.2227 91.6203 14.0586C91.4797 13.918 91.3625 13.7656 91.2688 13.6016C91.175 13.4141 91.0813 13.2266 90.9875 13.0391C90.9875 12.6641 90.9406 12.3828 90.8469 12.1953C90.6594 11.9844 90.5656 11.7852 90.5656 11.5977C90.5656 11.3867 90.4953 11.2344 90.3547 11.1406C90.3313 10.9062 90.2961 10.7656 90.2492 10.7188C90.2258 10.6719 90.1906 10.6133 90.1438 10.543C90.1203 10.4727 90.1086 10.4258 90.1086 10.4023C90.132 10.3555 90.132 10.2734 90.1086 10.1562C90.0617 10.0859 90.0031 10.0156 89.9328 9.94531C89.8859 9.875 89.8508 9.78125 89.8273 9.66406C89.8273 9.57031 89.8508 9.5 89.8977 9.45312C89.968 9.40625 90.0031 9.32422 90.0031 9.20703C89.9563 9.06641 89.8508 8.9375 89.6867 8.82031C89.5461 8.70312 89.5461 8.55078 89.6867 8.36328C89.6633 8.26953 89.6281 8.19922 89.5813 8.15234C89.5344 8.10547 89.4875 8.05859 89.4406 8.01172C89.2766 7.75391 89.1711 7.64844 89.1242 7.69531C89.1008 7.71875 89.0539 7.71875 88.9836 7.69531C88.8664 7.57812 88.7844 7.42578 88.7375 7.23828C88.6906 7.05078 88.6086 6.89844 88.4914 6.78125C88.468 6.47656 88.4094 6.27734 88.3156 6.18359C88.2453 6.08984 88.2219 5.9375 88.2453 5.72656C88.2219 5.63281 88.1633 5.58594 88.0695 5.58594C87.9758 5.5625 87.9055 5.51562 87.8586 5.44531C87.882 5.35156 87.9406 5.23438 88.0344 5.09375C88.0109 5 87.9758 4.94141 87.9289 4.91797C87.8586 4.87109 87.8117 4.8125 87.7883 4.74219C87.6008 4.69531 87.4602 4.63672 87.3664 4.56641C87.2727 4.47266 87.132 4.40234 86.9445 4.35547C86.8273 4.37891 86.7219 4.40234 86.6281 4.42578C86.5109 4.44922 86.382 4.46094 86.2414 4.46094C86.1945 4.29688 86.1242 4.14453 86.0305 4.00391C85.9367 3.83984 85.7727 3.78125 85.5383 3.82812C85.4914 3.78125 85.4445 3.74609 85.3977 3.72266C85.3273 3.67578 85.3039 3.59375 85.3273 3.47656C85.3977 3.40625 85.4797 3.39453 85.5734 3.44141C85.6672 3.48828 85.7609 3.52344 85.8547 3.54688C85.9719 3.5 86.0773 3.45313 86.1711 3.40625C86.2414 3.35937 86.3469 3.33594 86.4875 3.33594C86.7453 3.42969 86.9328 3.54688 87.05 3.6875C87.1672 3.61719 87.3078 3.52344 87.4719 3.40625C87.6125 3.28906 87.7414 3.3125 87.8586 3.47656C88.093 3.52344 88.257 3.57031 88.3508 3.61719C88.5148 3.73438 88.6438 3.75781 88.7375 3.6875C88.8547 3.59375 88.9836 3.53516 89.1242 3.51172C89.382 3.58203 89.5344 3.62891 89.5813 3.65234C89.6516 3.65234 89.7102 3.6875 89.757 3.75781C90.0383 3.78125 90.1906 3.78125 90.2141 3.75781C90.2375 3.71094 90.2727 3.67578 90.3195 3.65234C90.6242 3.65234 90.8 3.64062 90.8469 3.61719C90.8938 3.59375 90.9406 3.55859 90.9875 3.51172C91.1984 3.55859 91.3273 3.57031 91.3742 3.54688C91.4445 3.5 91.5148 3.47656 91.5852 3.47656C91.7727 3.47656 91.8898 3.57031 91.9367 3.75781C91.8898 4.01563 91.9367 4.12109 92.0773 4.07422C92.218 4.02734 92.3234 4.03906 92.3938 4.10938C92.4172 4.22656 92.3938 4.32031 92.3234 4.39062C92.2766 4.46094 92.2297 4.53125 92.1828 4.60156C92.3469 4.92969 92.4406 5.16406 92.4641 5.30469C92.4875 5.44531 92.5227 5.60937 92.5695 5.79688C92.6164 5.86719 92.6516 5.92578 92.675 5.97266C92.7219 6.01953 92.7688 6.06641 92.8156 6.11328C92.8156 6.23047 92.8156 6.32422 92.8156 6.39453C92.8391 6.44141 92.8391 6.51172 92.8156 6.60547C92.8625 6.69922 92.9094 6.78125 92.9563 6.85156C93.0266 6.92188 93.0852 7.00391 93.132 7.09766C93.2492 7.19141 93.3781 7.26172 93.5188 7.30859C93.6594 7.33203 93.7531 7.40234 93.8 7.51953C93.7766 7.73047 93.7414 7.92969 93.6945 8.11719C93.6711 8.30469 93.6711 8.52734 93.6945 8.78516C93.7414 8.92578 93.8 9.06641 93.8703 9.20703C93.9406 9.32422 93.9641 9.47656 93.9406 9.66406C93.8938 9.92188 93.9406 10.0508 94.0813 10.0508C94.2453 10.0508 94.3742 10.0742 94.468 10.1211C94.4914 10.3086 94.468 10.4375 94.3977 10.5078C94.3508 10.5547 94.3156 10.625 94.2922 10.7188C94.4094 11.0469 94.4445 11.2578 94.3977 11.3516C94.3508 11.4453 94.3156 11.5391 94.2922 11.6328C94.4094 11.6797 94.5617 11.7031 94.7492 11.7031C94.9367 11.6797 95.0539 11.75 95.1008 11.9141C95.1242 12.0078 95.1125 12.0898 95.0656 12.1602C95.0188 12.2305 95.0188 12.3125 95.0656 12.4062C95.3469 12.5234 95.5578 12.7109 95.6984 12.9688C95.7453 12.6641 95.757 12.4883 95.7336 12.4414C95.7336 12.3945 95.7453 12.3359 95.7688 12.2656C95.9328 12.125 96.0383 12.0078 96.0852 11.9141C96.1555 11.7969 96.2141 11.668 96.2609 11.5273C96.2609 11.2461 96.2961 10.9766 96.3664 10.7188C96.4133 10.6016 96.4719 10.5195 96.5422 10.4727C96.6359 10.4258 96.7063 10.3438 96.7531 10.2266C96.7531 10.1562 96.7531 10.0859 96.7531 10.0156C96.7766 9.94531 96.7883 9.86328 96.7883 9.76953C96.8352 9.55859 96.9289 9.39453 97.0695 9.27734C97.2336 9.16016 97.3273 8.97266 97.3508 8.71484C97.468 8.66797 97.55 8.59766 97.5969 8.50391C97.6438 8.38672 97.6906 8.26953 97.7375 8.15234C97.6203 7.80078 97.55 7.57812 97.5266 7.48438C97.5266 7.39062 97.5266 7.25 97.5266 7.0625C97.6203 6.96875 97.6906 6.86328 97.7375 6.74609C97.7844 6.62891 97.8664 6.52344 97.9836 6.42969C97.9836 6.24219 98.0188 6.08984 98.0891 5.97266C98.1594 5.85547 98.218 5.72656 98.2648 5.58594C98.2883 5.49219 98.2766 5.42188 98.2297 5.375C98.2063 5.32812 98.1828 5.26953 98.1594 5.19922C98.2063 5.10547 98.2297 5 98.2297 4.88281C98.2531 4.76562 98.2883 4.67188 98.3352 4.60156C98.382 4.57813 98.4406 4.58984 98.5109 4.63672C98.6047 4.66016 98.6867 4.66016 98.757 4.63672C98.8039 4.44922 98.7922 4.27344 98.7219 4.10938C98.8391 3.75781 98.8977 3.54688 98.8977 3.47656C98.8977 3.40625 98.9211 3.33594 98.968 3.26562C99.0852 3.24219 99.132 3.28906 99.1086 3.40625C99.1086 3.5 99.1203 3.58203 99.1438 3.65234C99.3313 3.65234 99.5188 3.59375 99.7063 3.47656C99.8938 3.33594 100.081 3.32422 100.269 3.44141C100.503 3.55859 100.655 3.58203 100.726 3.51172C100.937 3.51172 101.113 3.48828 101.253 3.44141C101.394 3.37109 101.546 3.32422 101.71 3.30078C101.991 3.41797 102.179 3.45313 102.273 3.40625C102.366 3.33594 102.495 3.27734 102.659 3.23047C102.73 3.18359 102.788 3.13672 102.835 3.08984C102.882 3.04297 102.964 3.01953 103.081 3.01953C103.175 3.23047 103.257 3.33594 103.327 3.33594C103.421 3.33594 103.503 3.35937 103.573 3.40625C103.714 3.47656 103.831 3.5 103.925 3.47656C104.019 3.45313 104.124 3.41797 104.241 3.37109C104.71 3.32422 105.038 3.30078 105.226 3.30078C105.413 3.25391 105.589 3.20703 105.753 3.16016C105.917 3.08984 106.105 3.04297 106.316 3.01953Z" fill="#F0AB00"/>
</svg>



